<svg xmlns="http://www.w3.org/2000/svg" xmlns:xlink="http://www.w3.org/1999/xlink" width="500" zoomAndPan="magnify" viewBox="0 0 375 374.999991" height="500" preserveAspectRatio="xMidYMid meet" version="1.0"><defs><g/><clipPath id="27213454e4"><rect x="0" width="371" y="0" height="176"/></clipPath></defs><g transform="matrix(1, 0, 0, 1, 2, 99)"><g clip-path="url(#27213454e4)"><g fill="#0ea5e9" fill-opacity="1"><g transform="translate(0.969117, 129.485407)"><g><path d="M 47.265625 -70.765625 C 48.359375 -71.160156 49.316406 -72.21875 50.140625 -73.9375 C 50.960938 -75.664062 51.609375 -77.039062 52.078125 -78.0625 C 52.546875 -79.15625 53.070312 -79.816406 53.65625 -80.046875 C 54.25 -80.285156 55.175781 -80.800781 56.4375 -81.59375 C 58.15625 -80.726562 59.523438 -79.984375 60.546875 -79.359375 C 61.566406 -78.734375 62.078125 -77.4375 62.078125 -75.46875 C 62.078125 -74.457031 61.523438 -73.421875 60.421875 -72.359375 C 59.328125 -71.296875 58.546875 -70.140625 58.078125 -68.890625 C 57.765625 -68.265625 57.234375 -67.773438 56.484375 -67.421875 C 55.742188 -67.066406 55.375 -66.695312 55.375 -66.3125 C 55.375 -66.3125 55.195312 -65.800781 54.84375 -64.78125 C 54.488281 -63.757812 53.976562 -62.523438 53.3125 -61.078125 C 52.644531 -59.628906 51.820312 -58.316406 50.84375 -57.140625 C 49.863281 -55.960938 48.707031 -55.175781 47.375 -54.78125 C 46.507812 -54.550781 45.785156 -54.039062 45.203125 -53.25 C 44.617188 -52.46875 44.050781 -51.644531 43.5 -50.78125 C 42.945312 -49.925781 42.160156 -49.300781 41.140625 -48.90625 C 41.222656 -48.90625 40.953125 -48.570312 40.328125 -47.90625 C 39.703125 -47.238281 38.976562 -46.4375 38.15625 -45.5 C 37.332031 -44.5625 36.585938 -43.695312 35.921875 -42.90625 C 35.253906 -42.125 34.878906 -41.613281 34.796875 -41.375 C 34.566406 -40.4375 34.054688 -39.632812 33.265625 -38.96875 C 32.484375 -38.300781 31.757812 -37.632812 31.09375 -36.96875 C 30.425781 -36.300781 30.09375 -35.539062 30.09375 -34.6875 C 30.09375 -34.445312 30.171875 -34.171875 30.328125 -33.859375 C 31.742188 -30.640625 33.410156 -27.285156 35.328125 -23.796875 C 37.242188 -20.316406 39.613281 -17.441406 42.4375 -15.171875 C 42.675781 -14.929688 43.363281 -14.398438 44.5 -13.578125 C 45.632812 -12.753906 46.925781 -11.96875 48.375 -11.21875 C 49.820312 -10.476562 51.054688 -10.109375 52.078125 -10.109375 C 53.015625 -10.109375 53.617188 -9.929688 53.890625 -9.578125 C 54.171875 -9.222656 54.3125 -8.65625 54.3125 -7.875 C 54.3125 -6.539062 53.664062 -5.65625 52.375 -5.21875 C 51.082031 -4.789062 49.769531 -4.578125 48.4375 -4.578125 C 46.550781 -4.578125 44.472656 -5.085938 42.203125 -6.109375 C 39.929688 -7.128906 37.71875 -8.421875 35.5625 -9.984375 C 33.40625 -11.554688 31.546875 -13.164062 29.984375 -14.8125 C 29.035156 -15.832031 27.972656 -17.144531 26.796875 -18.75 C 25.628906 -20.351562 24.535156 -21.800781 23.515625 -23.09375 C 22.492188 -24.394531 21.75 -25.046875 21.28125 -25.046875 C 21.039062 -25.046875 20.765625 -24.4375 20.453125 -23.21875 C 20.140625 -22 19.984375 -21.117188 19.984375 -20.578125 C 19.984375 -19.710938 20.097656 -18.726562 20.328125 -17.625 C 20.566406 -16.53125 20.6875 -15.316406 20.6875 -13.984375 C 20.6875 -13.597656 20.628906 -13.1875 20.515625 -12.75 C 20.398438 -12.320312 20.34375 -11.910156 20.34375 -11.515625 C 20.34375 -11.359375 20.359375 -11.160156 20.390625 -10.921875 C 20.429688 -10.691406 20.453125 -10.5 20.453125 -10.34375 L 20.578125 -10.34375 C 20.179688 -10.113281 19.984375 -9.835938 19.984375 -9.515625 C 19.984375 -9.203125 20.179688 -8.851562 20.578125 -8.46875 L 20.453125 -8.46875 C 20.921875 -7.207031 21.15625 -5.753906 21.15625 -4.109375 C 21.15625 -3.410156 21.113281 -2.707031 21.03125 -2 C 20.957031 -1.289062 20.726562 -0.78125 20.34375 -0.46875 C 19.632812 0.238281 19.359375 1.019531 19.515625 1.875 C 19.671875 2.738281 19.316406 3.484375 18.453125 4.109375 C 18.140625 4.347656 18.003906 4.738281 18.046875 5.28125 C 18.085938 5.832031 17.796875 6.382812 17.171875 6.9375 C 16.847656 6.78125 16.472656 6.640625 16.046875 6.515625 C 15.617188 6.398438 15.207031 6.304688 14.8125 6.234375 C 14.101562 5.992188 13.375 5.382812 12.625 4.40625 C 11.882812 3.425781 11.257812 2.367188 10.75 1.234375 C 10.25 0.0976562 10 -0.820312 10 -1.53125 C 10 -7.5625 9.800781 -13.59375 9.40625 -19.625 C 9.007812 -25.664062 8.8125 -31.703125 8.8125 -37.734375 C 8.8125 -40.953125 8.867188 -44.1875 8.984375 -47.4375 C 9.109375 -50.6875 9.171875 -53.957031 9.171875 -57.25 C 9.171875 -58.113281 9.015625 -58.914062 8.703125 -59.65625 C 8.390625 -60.40625 8.234375 -61.328125 8.234375 -62.421875 C 8.234375 -63.753906 8.484375 -65.066406 8.984375 -66.359375 C 9.492188 -67.648438 9.75 -68.882812 9.75 -70.0625 C 9.75 -72.8125 10.082031 -75.554688 10.75 -78.296875 C 11.414062 -81.035156 11.75 -83.738281 11.75 -86.40625 C 11.75 -88.363281 12.257812 -90.207031 13.28125 -91.9375 C 17.75 -91.625 20.921875 -90.625 22.796875 -88.9375 C 24.679688 -87.25 25.625 -84.679688 25.625 -81.234375 C 25.625 -79.984375 25.347656 -78.707031 24.796875 -77.40625 C 24.253906 -76.113281 23.984375 -74.960938 23.984375 -73.953125 C 23.984375 -72.691406 23.726562 -71.394531 23.21875 -70.0625 C 22.707031 -68.726562 22.453125 -66.570312 22.453125 -63.59375 C 22.453125 -62.738281 22.175781 -61.523438 21.625 -59.953125 C 21.082031 -58.390625 20.8125 -57.296875 20.8125 -56.671875 C 20.8125 -56.429688 20.828125 -56.171875 20.859375 -55.890625 C 20.898438 -55.617188 20.921875 -55.367188 20.921875 -55.140625 C 20.921875 -53.878906 20.820312 -52.601562 20.625 -51.3125 C 20.4375 -50.019531 20.34375 -48.984375 20.34375 -48.203125 C 20.34375 -47.421875 20.515625 -46.597656 20.859375 -45.734375 C 21.210938 -44.867188 22.132812 -44.4375 23.625 -44.4375 C 24.882812 -44.4375 26.082031 -45.0625 27.21875 -46.3125 C 28.351562 -47.570312 29.410156 -48.925781 30.390625 -50.375 C 31.367188 -51.820312 32.289062 -52.742188 33.15625 -53.140625 C 33.539062 -53.367188 34.222656 -54.128906 35.203125 -55.421875 C 36.179688 -56.722656 37.316406 -58.195312 38.609375 -59.84375 C 39.910156 -61.488281 41.226562 -62.9375 42.5625 -64.1875 C 43.582031 -65.125 44.484375 -66.203125 45.265625 -67.421875 C 46.046875 -68.640625 46.710938 -69.753906 47.265625 -70.765625 Z M 14.21875 -64.890625 C 14.300781 -64.890625 14.359375 -64.910156 14.390625 -64.953125 C 14.429688 -64.992188 14.492188 -65.015625 14.578125 -65.015625 C 14.734375 -65.015625 14.890625 -64.972656 15.046875 -64.890625 C 15.203125 -64.816406 15.359375 -64.738281 15.515625 -64.65625 C 15.671875 -64.65625 15.75 -64.851562 15.75 -65.25 C 15.75 -65.5625 15.671875 -65.71875 15.515625 -65.71875 C 15.359375 -65.71875 15.140625 -65.617188 14.859375 -65.421875 C 14.585938 -65.222656 14.375 -65.046875 14.21875 -64.890625 Z M 18.921875 -47.140625 C 18.765625 -47.140625 18.566406 -47.140625 18.328125 -47.140625 C 18.097656 -47.140625 17.984375 -46.984375 17.984375 -46.671875 C 17.984375 -46.429688 18.082031 -46.234375 18.28125 -46.078125 C 18.476562 -45.921875 18.613281 -45.84375 18.6875 -45.84375 C 18.925781 -46 19.046875 -46.117188 19.046875 -46.203125 C 19.046875 -46.441406 19.023438 -46.640625 18.984375 -46.796875 C 18.941406 -46.953125 18.882812 -47.109375 18.8125 -47.265625 C 19.28125 -47.648438 19.515625 -48.117188 19.515625 -48.671875 C 19.515625 -48.984375 19.4375 -49.21875 19.28125 -49.375 C 19.125 -49.144531 19.023438 -48.8125 18.984375 -48.375 C 18.941406 -47.945312 18.921875 -47.535156 18.921875 -47.140625 Z M 13.984375 -16.21875 L 13.875 -16.21875 C 13.875 -16.375 13.890625 -16.507812 13.921875 -16.625 C 13.960938 -16.75 13.984375 -16.847656 13.984375 -16.921875 C 13.984375 -17.242188 13.789062 -17.484375 13.40625 -17.640625 C 13.164062 -17.640625 12.988281 -17.539062 12.875 -17.34375 C 12.757812 -17.144531 12.703125 -16.96875 12.703125 -16.8125 C 12.703125 -16.34375 12.894531 -16.109375 13.28125 -16.109375 C 13.4375 -16.109375 13.570312 -16.125 13.6875 -16.15625 C 13.8125 -16.195312 13.910156 -16.21875 13.984375 -16.21875 Z M 14.453125 -26.21875 C 14.453125 -26.53125 14.410156 -27.132812 14.328125 -28.03125 C 14.253906 -28.9375 14.175781 -29.820312 14.09375 -30.6875 C 14.019531 -31.550781 13.90625 -31.984375 13.75 -31.984375 C 12.894531 -31.984375 12.46875 -31.507812 12.46875 -30.5625 C 12.46875 -30.25 12.582031 -29.875 12.8125 -29.4375 C 13.050781 -29.007812 13.171875 -28.601562 13.171875 -28.21875 C 13.171875 -27.59375 13.050781 -26.90625 12.8125 -26.15625 C 12.582031 -25.414062 12.46875 -24.726562 12.46875 -24.09375 C 12.46875 -23.863281 12.625 -23.273438 12.9375 -22.328125 C 13.25 -21.390625 13.640625 -20.921875 14.109375 -20.921875 C 14.265625 -21.078125 14.359375 -21.429688 14.390625 -21.984375 C 14.429688 -22.535156 14.453125 -23.082031 14.453125 -23.625 C 14.453125 -24.09375 14.453125 -24.5625 14.453125 -25.03125 C 14.453125 -25.507812 14.453125 -25.90625 14.453125 -26.21875 Z M 19.75 -27.046875 C 19.75 -27.273438 19.6875 -27.742188 19.5625 -28.453125 C 19.445312 -29.160156 19.253906 -29.828125 18.984375 -30.453125 C 18.710938 -31.078125 18.34375 -31.390625 17.875 -31.390625 C 17.5625 -31.078125 17.40625 -30.6875 17.40625 -30.21875 C 17.40625 -30.289062 17.40625 -30.347656 17.40625 -30.390625 C 17.40625 -30.429688 17.40625 -30.453125 17.40625 -30.453125 C 17.476562 -30.453125 17.550781 -30.117188 17.625 -29.453125 C 17.707031 -28.785156 17.882812 -28.097656 18.15625 -27.390625 C 18.4375 -26.679688 18.769531 -26.210938 19.15625 -25.984375 C 19.394531 -25.984375 19.535156 -26.117188 19.578125 -26.390625 C 19.617188 -26.660156 19.675781 -26.878906 19.75 -27.046875 Z M 15.515625 -42.328125 C 15.753906 -42.554688 15.875 -42.867188 15.875 -43.265625 C 15.875 -43.890625 15.851562 -44.222656 15.8125 -44.265625 C 15.769531 -44.304688 15.671875 -44.484375 15.515625 -44.796875 C 15.359375 -44.640625 15.257812 -44.421875 15.21875 -44.140625 C 15.1875 -43.867188 15.171875 -43.613281 15.171875 -43.375 C 15.171875 -43.0625 15.285156 -42.710938 15.515625 -42.328125 Z M 13.171875 -48.671875 C 13.015625 -48.828125 12.9375 -48.90625 12.9375 -48.90625 C 12.300781 -48.90625 11.984375 -48.828125 11.984375 -48.671875 C 11.984375 -48.429688 12.144531 -48.3125 12.46875 -48.3125 C 12.625 -48.394531 12.757812 -48.453125 12.875 -48.484375 C 12.988281 -48.523438 13.085938 -48.585938 13.171875 -48.671875 Z M 14.109375 -42.4375 C 13.953125 -42.59375 13.875 -42.671875 13.875 -42.671875 C 13.632812 -42.671875 13.515625 -42.59375 13.515625 -42.4375 C 13.515625 -42.125 13.59375 -41.96875 13.75 -41.96875 C 13.988281 -41.96875 14.109375 -42.125 14.109375 -42.4375 Z M 13.75 -13.28125 L 13.875 -12.9375 L 13.984375 -13.171875 Z M 18.21875 -12.578125 C 18.21875 -12.503906 18.195312 -12.445312 18.15625 -12.40625 C 18.125 -12.363281 18.109375 -12.34375 18.109375 -12.34375 C 18.109375 -12.101562 18.1875 -11.984375 18.34375 -11.984375 C 18.34375 -11.984375 18.359375 -12.003906 18.390625 -12.046875 C 18.429688 -12.085938 18.492188 -12.144531 18.578125 -12.21875 C 18.578125 -12.457031 18.457031 -12.578125 18.21875 -12.578125 Z M 16.6875 -8.578125 C 16.6875 -8.734375 16.570312 -8.8125 16.34375 -8.8125 C 16.34375 -8.738281 16.359375 -8.679688 16.390625 -8.640625 C 16.429688 -8.597656 16.453125 -8.539062 16.453125 -8.46875 C 16.535156 -8.46875 16.613281 -8.503906 16.6875 -8.578125 Z M 19.046875 -23.859375 L 19.15625 -23.515625 L 19.28125 -23.75 Z M 13.875 -51.96875 L 13.75 -51.609375 L 13.984375 -51.609375 Z M 13.875 -51.96875 "/></g></g></g><g fill="#0ea5e9" fill-opacity="1"><g transform="translate(60.690255, 129.485407)"><g><path d="M 68.65625 -5.296875 C 67.945312 -5.523438 67.515625 -5.640625 67.359375 -5.640625 C 67.128906 -5.640625 66.660156 -5.34375 65.953125 -4.75 C 65.242188 -4.164062 64.457031 -3.875 63.59375 -3.875 C 63.050781 -3.875 62.503906 -4.03125 61.953125 -4.34375 C 61.398438 -4.65625 60.734375 -4.8125 59.953125 -4.8125 C 58.929688 -4.8125 57.832031 -4.578125 56.65625 -4.109375 C 55.488281 -3.640625 54.351562 -3.40625 53.25 -3.40625 C 53.09375 -3.40625 52.9375 -3.425781 52.78125 -3.46875 C 52.625 -3.507812 52.46875 -3.53125 52.3125 -3.53125 C 51.84375 -3.21875 51.351562 -3.039062 50.84375 -3 C 50.332031 -2.957031 49.804688 -2.9375 49.265625 -2.9375 C 48.710938 -2.9375 47.628906 -2.660156 46.015625 -2.109375 C 44.410156 -1.566406 43.101562 -1.296875 42.09375 -1.296875 C 41.695312 -1.296875 41.398438 -1.46875 41.203125 -1.8125 C 41.003906 -2.164062 40.75 -2.34375 40.4375 -2.34375 C 40.363281 -2.34375 40.285156 -2.320312 40.203125 -2.28125 C 40.128906 -2.25 40.015625 -2.234375 39.859375 -2.234375 C 39.703125 -2.234375 39.503906 -2.25 39.265625 -2.28125 C 39.023438 -2.320312 38.789062 -2.34375 38.5625 -2.34375 C 37.78125 -2.34375 36.957031 -2.03125 36.09375 -1.40625 C 35.226562 -0.78125 34.328125 -0.46875 33.390625 -0.46875 C 32.523438 -0.46875 31.71875 -0.273438 30.96875 0.109375 C 30.226562 0.503906 29.425781 0.703125 28.5625 0.703125 C 28.332031 0.703125 28.097656 0.660156 27.859375 0.578125 C 27.628906 0.503906 27.394531 0.46875 27.15625 0.46875 C 26.53125 0.46875 25.898438 0.757812 25.265625 1.34375 C 24.640625 1.9375 23.859375 2.234375 22.921875 2.234375 C 22.691406 2.234375 22.4375 2.210938 22.15625 2.171875 C 21.882812 2.128906 21.59375 2.109375 21.28125 2.109375 C 21.039062 2.109375 20.429688 2.226562 19.453125 2.46875 C 18.472656 2.707031 17.335938 2.984375 16.046875 3.296875 C 14.753906 3.609375 13.539062 3.957031 12.40625 4.34375 C 11.269531 4.738281 10.503906 5.054688 10.109375 5.296875 C 9.171875 5.835938 8.132812 6.1875 7 6.34375 C 5.863281 6.5 4.785156 6.695312 3.765625 6.9375 C 3.210938 6.9375 2.382812 6.816406 1.28125 6.578125 C 0.1875 6.347656 -0.550781 6.113281 -0.9375 5.875 C -0.9375 5.875 -1.347656 5.441406 -2.171875 4.578125 C -2.992188 3.722656 -3.816406 2.765625 -4.640625 1.703125 C -5.460938 0.648438 -5.875 -0.0703125 -5.875 -0.46875 C -5.875 -1.25 -5.085938 -1.875 -3.515625 -2.34375 C -1.953125 -2.820312 -0.625 -3.332031 0.46875 -3.875 C 2.195312 -4.664062 3.941406 -5.15625 5.703125 -5.34375 C 7.460938 -5.539062 9.1875 -5.796875 10.875 -6.109375 C 12.5625 -6.421875 14.1875 -7.050781 15.75 -8 C 15.75 -10.582031 15.863281 -13.5 16.09375 -16.75 C 16.332031 -20 16.648438 -23.191406 17.046875 -26.328125 C 17.203125 -27.585938 17.535156 -28.960938 18.046875 -30.453125 C 18.554688 -31.941406 18.8125 -32.957031 18.8125 -33.5 C 18.8125 -33.894531 18.710938 -34.40625 18.515625 -35.03125 C 18.316406 -35.65625 18.21875 -36.320312 18.21875 -37.03125 C 18.21875 -37.8125 18.507812 -38.492188 19.09375 -39.078125 C 19.6875 -39.671875 19.984375 -40.203125 19.984375 -40.671875 C 19.984375 -41.066406 19.863281 -41.457031 19.625 -41.84375 C 19.394531 -42.238281 19.28125 -42.632812 19.28125 -43.03125 C 19.28125 -43.65625 19.492188 -44.300781 19.921875 -44.96875 C 20.359375 -45.632812 20.847656 -46.28125 21.390625 -46.90625 C 21.078125 -47.53125 20.820312 -48.175781 20.625 -48.84375 C 20.4375 -49.507812 20.34375 -50.15625 20.34375 -50.78125 C 20.34375 -51.570312 20.421875 -52.335938 20.578125 -53.078125 C 20.734375 -53.828125 20.8125 -54.59375 20.8125 -55.375 C 20.8125 -55.757812 20.75 -56.148438 20.625 -56.546875 C 20.507812 -56.941406 20.453125 -57.332031 20.453125 -57.71875 C 20.453125 -58.34375 20.6875 -58.910156 21.15625 -59.421875 C 21.625 -59.929688 21.859375 -60.539062 21.859375 -61.25 C 21.859375 -64.144531 21.582031 -65.90625 21.03125 -66.53125 C 20.488281 -67.164062 19.316406 -67.519531 17.515625 -67.59375 C 14.222656 -67.832031 11.675781 -67.988281 9.875 -68.0625 C 8.070312 -68.144531 6.660156 -68.476562 5.640625 -69.0625 C 4.617188 -69.65625 3.5625 -70.734375 2.46875 -72.296875 C 2.46875 -72.378906 2.3125 -72.8125 2 -73.59375 C 1.6875 -74.375 1.390625 -75.210938 1.109375 -76.109375 C 0.835938 -77.015625 0.703125 -77.664062 0.703125 -78.0625 C 0.703125 -78.457031 0.800781 -78.890625 1 -79.359375 C 1.195312 -79.828125 1.566406 -80.0625 2.109375 -80.0625 C 3.597656 -80.0625 5.046875 -80 6.453125 -79.875 C 7.867188 -79.757812 9.320312 -79.625 10.8125 -79.46875 C 11.4375 -79.625 11.945312 -79.703125 12.34375 -79.703125 C 13.4375 -79.703125 14.492188 -79.546875 15.515625 -79.234375 C 16.535156 -78.921875 17.515625 -78.765625 18.453125 -78.765625 C 18.847656 -78.765625 19.257812 -78.84375 19.6875 -79 C 20.125 -79.15625 20.5 -79.234375 20.8125 -79.234375 C 21.195312 -79.234375 21.625 -79.15625 22.09375 -79 C 22.570312 -78.84375 23.003906 -78.765625 23.390625 -78.765625 C 24.253906 -78.765625 25.117188 -78.84375 25.984375 -79 C 26.847656 -79.15625 27.671875 -79.234375 28.453125 -79.234375 C 29.785156 -79.234375 31.132812 -79.132812 32.5 -78.9375 C 33.875 -78.75 35.1875 -78.65625 36.4375 -78.65625 C 37.070312 -78.65625 37.722656 -78.75 38.390625 -78.9375 C 39.054688 -79.132812 39.703125 -79.234375 40.328125 -79.234375 C 41.023438 -79.234375 41.707031 -79.054688 42.375 -78.703125 C 43.039062 -78.347656 43.726562 -78.171875 44.4375 -78.171875 C 45.0625 -78.171875 45.648438 -78.210938 46.203125 -78.296875 C 46.753906 -78.378906 47.300781 -78.421875 47.84375 -78.421875 C 49.414062 -78.421875 50.867188 -78.257812 52.203125 -77.9375 C 53.535156 -77.625 54.863281 -77.46875 56.1875 -77.46875 C 56.351562 -77.46875 56.53125 -77.488281 56.71875 -77.53125 C 56.914062 -77.570312 57.132812 -77.59375 57.375 -77.59375 C 60.113281 -77.59375 61.914062 -76.648438 62.78125 -74.765625 C 62.78125 -73.515625 62.382812 -72.28125 61.59375 -71.0625 C 60.8125 -69.851562 59.675781 -69.25 58.1875 -69.25 C 57.5625 -69.25 56.738281 -69.304688 55.71875 -69.421875 C 54.707031 -69.535156 53.960938 -69.59375 53.484375 -69.59375 C 53.171875 -69.59375 52.9375 -69.296875 52.78125 -68.703125 C 52.625 -68.117188 51.878906 -67.828125 50.546875 -67.828125 C 49.054688 -67.828125 47.644531 -67.984375 46.3125 -68.296875 C 45.769531 -68.453125 45.359375 -68.785156 45.078125 -69.296875 C 44.804688 -69.804688 44.554688 -70.0625 44.328125 -70.0625 C 44.003906 -70.0625 43.195312 -69.609375 41.90625 -68.703125 C 40.613281 -67.804688 39.109375 -67.359375 37.390625 -67.359375 C 36.679688 -67.359375 36.171875 -67.398438 35.859375 -67.484375 C 35.390625 -67.484375 35.15625 -67.007812 35.15625 -66.0625 C 35.15625 -64.101562 35.234375 -62.179688 35.390625 -60.296875 C 35.546875 -58.421875 35.625 -56.3125 35.625 -53.96875 C 35.625 -52.632812 35.546875 -51.359375 35.390625 -50.140625 C 35.234375 -48.921875 34.921875 -47.960938 34.453125 -47.265625 C 34.367188 -47.179688 34.171875 -46.507812 33.859375 -45.25 C 33.546875 -44 33.390625 -43.0625 33.390625 -42.4375 C 33.390625 -42.125 33.503906 -41.769531 33.734375 -41.375 C 33.734375 -41.300781 33.691406 -41.203125 33.609375 -41.078125 C 33.535156 -40.960938 33.460938 -40.828125 33.390625 -40.671875 C 33.460938 -40.753906 33.164062 -40.441406 32.5 -39.734375 C 31.832031 -39.023438 31.164062 -38.316406 30.5 -37.609375 C 29.84375 -36.910156 29.515625 -36.597656 29.515625 -36.671875 C 29.515625 -36.359375 29.6875 -36.046875 30.03125 -35.734375 C 30.382812 -35.421875 30.5625 -35.1875 30.5625 -35.03125 C 30.5625 -34.800781 30.363281 -34.46875 29.96875 -34.03125 C 29.582031 -33.601562 29.390625 -33.113281 29.390625 -32.5625 C 29.390625 -32.175781 29.566406 -31.570312 29.921875 -30.75 C 30.273438 -29.925781 30.566406 -29.238281 30.796875 -28.6875 C 30.253906 -27.90625 29.785156 -27.101562 29.390625 -26.28125 C 28.992188 -25.457031 28.71875 -24.535156 28.5625 -23.515625 C 28.488281 -22.890625 28.175781 -22.125 27.625 -21.21875 C 27.070312 -20.320312 26.796875 -19.796875 26.796875 -19.640625 C 26.796875 -18.378906 26.679688 -17.316406 26.453125 -16.453125 L 26.453125 -16.6875 C 27.234375 -16.300781 27.625 -15.675781 27.625 -14.8125 C 27.625 -14.65625 27.601562 -14.457031 27.5625 -14.21875 C 27.53125 -13.988281 27.515625 -13.796875 27.515625 -13.640625 C 27.515625 -13.242188 27.726562 -13.003906 28.15625 -12.921875 C 28.582031 -12.847656 28.914062 -12.8125 29.15625 -12.8125 C 29.3125 -12.8125 29.503906 -12.832031 29.734375 -12.875 C 29.972656 -12.914062 30.171875 -12.9375 30.328125 -12.9375 C 30.953125 -12.9375 31.5 -12.757812 31.96875 -12.40625 C 32.445312 -12.050781 33.035156 -11.875 33.734375 -11.875 C 35.304688 -12.03125 36.894531 -12.1875 38.5 -12.34375 C 40.101562 -12.5 41.648438 -12.773438 43.140625 -13.171875 C 45.804688 -13.796875 48.550781 -14.1875 51.375 -14.34375 C 54.195312 -14.5 56.976562 -14.65625 59.71875 -14.8125 C 60.738281 -14.8125 61.738281 -14.910156 62.71875 -15.109375 C 63.695312 -15.304688 64.65625 -15.40625 65.59375 -15.40625 C 65.988281 -15.40625 66.675781 -15.148438 67.65625 -14.640625 C 68.632812 -14.128906 69.203125 -13.441406 69.359375 -12.578125 C 69.359375 -12.265625 69.847656 -12.007812 70.828125 -11.8125 C 71.804688 -11.613281 72.296875 -11.242188 72.296875 -10.703125 C 72.296875 -10.148438 72.019531 -9.695312 71.46875 -9.34375 C 70.925781 -8.988281 70.378906 -8.691406 69.828125 -8.453125 C 69.285156 -8.222656 69.015625 -7.992188 69.015625 -7.765625 C 69.015625 -7.210938 69.40625 -6.816406 70.1875 -6.578125 C 70.96875 -6.347656 71.359375 -5.921875 71.359375 -5.296875 C 71.359375 -4.898438 71.203125 -4.640625 70.890625 -4.515625 C 70.578125 -4.398438 70.265625 -4.34375 69.953125 -4.34375 C 69.328125 -4.34375 68.851562 -4.617188 68.53125 -5.171875 C 68.53125 -5.171875 68.570312 -5.171875 68.65625 -5.171875 C 68.738281 -5.171875 68.78125 -5.171875 68.78125 -5.171875 C 68.78125 -5.253906 68.757812 -5.296875 68.71875 -5.296875 C 68.675781 -5.296875 68.65625 -5.296875 68.65625 -5.296875 Z M 51.609375 -69.125 C 51.296875 -69.28125 51 -69.4375 50.71875 -69.59375 C 50.445312 -69.75 50.195312 -69.828125 49.96875 -69.828125 C 49.726562 -69.828125 49.609375 -69.632812 49.609375 -69.25 C 49.765625 -69.09375 49.882812 -69.015625 49.96875 -69.015625 C 50.28125 -69.015625 50.570312 -69.03125 50.84375 -69.0625 C 51.113281 -69.101562 51.367188 -69.125 51.609375 -69.125 C 51.609375 -69.207031 51.570312 -69.285156 51.5 -69.359375 C 51.5 -69.203125 51.535156 -69.125 51.609375 -69.125 Z M 28.09375 -36.09375 C 27.863281 -36.71875 27.671875 -37.03125 27.515625 -37.03125 C 27.035156 -37.03125 26.796875 -36.832031 26.796875 -36.4375 C 26.796875 -36.207031 26.972656 -36.09375 27.328125 -36.09375 C 27.679688 -36.09375 27.9375 -36.09375 28.09375 -36.09375 Z M 28.09375 -36.09375 "/></g></g></g><g fill="#0ea5e9" fill-opacity="1"><g transform="translate(127.112402, 129.485407)"><g><path d="M 36.09375 -16.34375 C 36.007812 -16.257812 35.96875 -16.140625 35.96875 -15.984375 C 35.96875 -15.828125 35.929688 -15.671875 35.859375 -15.515625 L 35.96875 -15.515625 C 35.8125 -15.515625 35.734375 -15.398438 35.734375 -15.171875 C 35.734375 -14.859375 35.847656 -14.503906 36.078125 -14.109375 C 36.316406 -13.710938 36.4375 -13.320312 36.4375 -12.9375 C 36.4375 -12.625 36.378906 -12.347656 36.265625 -12.109375 C 36.148438 -11.867188 36.09375 -11.632812 36.09375 -11.40625 C 36.09375 -11.007812 36.207031 -10.59375 36.4375 -10.15625 C 36.675781 -9.726562 36.796875 -9.242188 36.796875 -8.703125 C 36.796875 -8.390625 37.050781 -7.742188 37.5625 -6.765625 C 38.070312 -5.785156 38.328125 -4.863281 38.328125 -4 C 38.328125 -2.507812 37.695312 -1.546875 36.4375 -1.109375 C 35.1875 -0.679688 33.859375 -0.269531 32.453125 0.125 C 31.898438 -0.507812 31.226562 -1.175781 30.4375 -1.875 C 29.65625 -2.582031 29.265625 -3.367188 29.265625 -4.234375 C 29.265625 -4.460938 29.347656 -4.816406 29.515625 -5.296875 C 29.347656 -6.234375 29.066406 -7.347656 28.671875 -8.640625 C 28.285156 -9.929688 28.09375 -11.046875 28.09375 -11.984375 C 28.09375 -12.304688 28.210938 -12.582031 28.453125 -12.8125 C 28.367188 -12.738281 28.304688 -12.679688 28.265625 -12.640625 C 28.234375 -12.597656 28.21875 -12.578125 28.21875 -12.578125 C 28.21875 -12.578125 28.195312 -12.597656 28.15625 -12.640625 C 28.113281 -12.679688 28.09375 -12.703125 28.09375 -12.703125 C 28.09375 -12.773438 28.113281 -12.8125 28.15625 -12.8125 C 28.195312 -12.8125 28.21875 -12.851562 28.21875 -12.9375 L 28.453125 -12.578125 C 27.117188 -14.066406 26.429688 -16.046875 26.390625 -18.515625 C 26.347656 -20.984375 26.25 -23.273438 26.09375 -25.390625 C 26.09375 -26.253906 26.171875 -27.078125 26.328125 -27.859375 C 26.484375 -28.640625 26.5625 -29.425781 26.5625 -30.21875 C 26.5625 -30.757812 26.503906 -31.34375 26.390625 -31.96875 C 26.273438 -32.601562 26.21875 -33.234375 26.21875 -33.859375 C 26.21875 -35.660156 26.3125 -36.972656 26.5 -37.796875 C 26.695312 -38.617188 27.070312 -39.617188 27.625 -40.796875 C 27.625 -41.335938 27.367188 -41.921875 26.859375 -42.546875 C 26.347656 -43.179688 26.09375 -43.851562 26.09375 -44.5625 C 26.09375 -45.96875 26.207031 -47.414062 26.4375 -48.90625 C 26.675781 -50.394531 26.796875 -51.882812 26.796875 -53.375 C 26.796875 -53.769531 26.773438 -54.140625 26.734375 -54.484375 C 26.703125 -54.835938 26.6875 -55.171875 26.6875 -55.484375 C 26.6875 -56.117188 26.898438 -56.765625 27.328125 -57.421875 C 27.765625 -58.085938 27.984375 -58.738281 27.984375 -59.375 C 27.984375 -60 27.84375 -60.601562 27.5625 -61.1875 C 27.289062 -61.78125 27.15625 -62.347656 27.15625 -62.890625 C 27.15625 -63.359375 27.253906 -63.789062 27.453125 -64.1875 C 27.648438 -64.582031 27.75 -65.015625 27.75 -65.484375 C 27.75 -67.046875 27.53125 -68.082031 27.09375 -68.59375 C 26.664062 -69.101562 26.332031 -69.359375 26.09375 -69.359375 C 24.757812 -69.359375 23.171875 -69.046875 21.328125 -68.421875 C 19.492188 -67.796875 17.578125 -67.164062 15.578125 -66.53125 C 13.578125 -65.90625 11.675781 -65.59375 9.875 -65.59375 C 8.625 -65.59375 7.445312 -65.726562 6.34375 -66 C 5.25 -66.28125 4.15625 -66.695312 3.0625 -67.25 C 2.976562 -67.320312 2.484375 -67.632812 1.578125 -68.1875 C 0.679688 -68.738281 -0.191406 -69.484375 -1.046875 -70.421875 C -1.910156 -71.359375 -2.34375 -72.457031 -2.34375 -73.71875 C -2.34375 -74.257812 -2.085938 -74.765625 -1.578125 -75.234375 C -1.078125 -75.710938 -0.507812 -75.953125 0.125 -75.953125 C 0.75 -75.953125 1.394531 -75.832031 2.0625 -75.59375 C 2.726562 -75.351562 3.332031 -75.234375 3.875 -75.234375 C 4.664062 -75.234375 5.410156 -75.289062 6.109375 -75.40625 C 6.816406 -75.53125 7.5625 -75.671875 8.34375 -75.828125 C 8.738281 -75.910156 9.601562 -76.085938 10.9375 -76.359375 C 12.269531 -76.628906 13.851562 -76.976562 15.6875 -77.40625 C 17.53125 -77.84375 19.3125 -78.273438 21.03125 -78.703125 C 22.757812 -79.140625 24.210938 -79.570312 25.390625 -80 C 26.566406 -80.425781 27.15625 -80.800781 27.15625 -81.125 C 27.15625 -81.351562 27.113281 -81.566406 27.03125 -81.765625 C 26.957031 -81.960938 26.921875 -82.21875 26.921875 -82.53125 C 26.921875 -83.082031 27.445312 -83.492188 28.5 -83.765625 C 29.5625 -84.035156 30.40625 -84.171875 31.03125 -84.171875 C 32.050781 -84.171875 33.007812 -83.9375 33.90625 -83.46875 C 34.8125 -83 35.773438 -82.765625 36.796875 -82.765625 C 37.503906 -82.765625 38.191406 -82.863281 38.859375 -83.0625 C 39.523438 -83.257812 40.171875 -83.394531 40.796875 -83.46875 C 44.242188 -83.863281 47.628906 -84.453125 50.953125 -85.234375 C 54.285156 -86.015625 57.71875 -86.40625 61.25 -86.40625 C 61.800781 -86.40625 62.800781 -86.347656 64.25 -86.234375 C 65.695312 -86.117188 67.046875 -85.804688 68.296875 -85.296875 C 69.554688 -84.785156 70.1875 -83.898438 70.1875 -82.640625 C 70.1875 -81.390625 69.578125 -80.410156 68.359375 -79.703125 C 67.148438 -79.003906 65.660156 -78.515625 63.890625 -78.234375 C 62.128906 -77.960938 60.363281 -77.75 58.59375 -77.59375 C 56.832031 -77.4375 55.40625 -77.238281 54.3125 -77 C 53.757812 -77 53.363281 -76.820312 53.125 -76.46875 C 52.894531 -76.125 52.585938 -75.953125 52.203125 -75.953125 C 51.890625 -75.953125 51.59375 -76.03125 51.3125 -76.1875 C 51.039062 -76.34375 50.75 -76.457031 50.4375 -76.53125 C 49.414062 -75.75 48.0625 -75.101562 46.375 -74.59375 C 44.6875 -74.082031 43.097656 -73.671875 41.609375 -73.359375 C 40.910156 -73.203125 40.34375 -72.457031 39.90625 -71.125 C 39.476562 -69.789062 39.144531 -68.160156 38.90625 -66.234375 C 38.675781 -64.316406 38.5 -62.4375 38.375 -60.59375 C 38.257812 -58.757812 38.203125 -57.253906 38.203125 -56.078125 C 38.203125 -55.679688 38.238281 -55.304688 38.3125 -54.953125 C 38.394531 -54.609375 38.4375 -54.238281 38.4375 -53.84375 C 38.4375 -52.195312 38.359375 -50.53125 38.203125 -48.84375 C 38.046875 -47.15625 37.96875 -45.453125 37.96875 -43.734375 C 37.96875 -42.710938 38.003906 -41.648438 38.078125 -40.546875 C 38.160156 -39.453125 38.203125 -38.359375 38.203125 -37.265625 C 37.890625 -35.546875 37.769531 -33.84375 37.84375 -32.15625 C 37.925781 -30.46875 37.851562 -28.800781 37.625 -27.15625 C 37.46875 -25.90625 37.132812 -24.515625 36.625 -22.984375 C 36.113281 -21.453125 35.859375 -20.097656 35.859375 -18.921875 C 35.859375 -18.609375 35.9375 -18.316406 36.09375 -18.046875 C 36.25 -17.773438 36.328125 -17.519531 36.328125 -17.28125 C 36.328125 -17.125 36.285156 -16.945312 36.203125 -16.75 C 36.128906 -16.550781 36.050781 -16.375 35.96875 -16.21875 C 35.96875 -16.21875 35.988281 -16.238281 36.03125 -16.28125 C 36.070312 -16.320312 36.09375 -16.34375 36.09375 -16.34375 Z M 35.859375 -15.515625 C 35.929688 -15.285156 35.96875 -14.929688 35.96875 -14.453125 C 35.96875 -14.929688 35.929688 -15.285156 35.859375 -15.515625 Z M 36.09375 -16.34375 C 36.09375 -16.34375 36.070312 -16.320312 36.03125 -16.28125 C 35.988281 -16.238281 35.96875 -16.21875 35.96875 -16.21875 C 35.96875 -16.21875 35.988281 -16.238281 36.03125 -16.28125 C 36.070312 -16.320312 36.09375 -16.34375 36.09375 -16.34375 Z M 36.09375 -16.34375 "/></g></g></g><g fill="#0ea5e9" fill-opacity="1"><g transform="translate(191.418445, 129.485407)"><g><path d="M 35.265625 -6 C 34.953125 -5.132812 34.34375 -4.09375 33.4375 -2.875 C 32.539062 -1.664062 31.503906 -0.628906 30.328125 0.234375 C 29.148438 1.097656 27.9375 1.53125 26.6875 1.53125 C 26.601562 1.53125 26.539062 1.507812 26.5 1.46875 C 26.46875 1.425781 26.453125 1.40625 26.453125 1.40625 C 25.742188 1.40625 25.171875 1.539062 24.734375 1.8125 C 24.304688 2.09375 23.78125 2.3125 23.15625 2.46875 C 22.0625 1.601562 20.890625 1.171875 19.640625 1.171875 C 19.398438 1.171875 19.160156 1.191406 18.921875 1.234375 C 18.691406 1.273438 18.457031 1.296875 18.21875 1.296875 C 16.96875 1.296875 16.28125 1.117188 16.15625 0.765625 C 16.039062 0.410156 15.90625 -0.117188 15.75 -0.828125 C 15.675781 -1.140625 15.148438 -1.707031 14.171875 -2.53125 C 13.191406 -3.351562 12.207031 -4.269531 11.21875 -5.28125 C 10.238281 -6.300781 9.75 -7.207031 9.75 -8 C 9.75 -9.25 9.472656 -10.460938 8.921875 -11.640625 C 8.378906 -12.816406 8.109375 -13.992188 8.109375 -15.171875 C 8.109375 -15.640625 8.222656 -16.128906 8.453125 -16.640625 C 8.691406 -17.148438 8.8125 -17.675781 8.8125 -18.21875 C 8.8125 -18.925781 8.578125 -19.492188 8.109375 -19.921875 C 7.640625 -20.359375 7.40625 -20.847656 7.40625 -21.390625 C 7.40625 -21.628906 7.460938 -21.863281 7.578125 -22.09375 C 7.703125 -22.332031 7.765625 -22.609375 7.765625 -22.921875 C 7.765625 -23.234375 7.644531 -23.546875 7.40625 -23.859375 C 7.164062 -24.171875 7.046875 -24.523438 7.046875 -24.921875 C 7.046875 -25.316406 7.125 -25.648438 7.28125 -25.921875 C 7.445312 -26.191406 7.53125 -26.484375 7.53125 -26.796875 C 7.53125 -27.347656 7.445312 -27.957031 7.28125 -28.625 C 7.125 -29.289062 7.046875 -29.976562 7.046875 -30.6875 C 7.046875 -31.070312 7.066406 -31.476562 7.109375 -31.90625 C 7.148438 -32.34375 7.171875 -32.757812 7.171875 -33.15625 C 7.171875 -33.539062 7.148438 -33.945312 7.109375 -34.375 C 7.066406 -34.8125 7.046875 -35.265625 7.046875 -35.734375 C 7.046875 -36.679688 7.242188 -37.445312 7.640625 -38.03125 C 8.035156 -38.613281 8.425781 -39.414062 8.8125 -40.4375 C 9.207031 -41.457031 9.40625 -43.066406 9.40625 -45.265625 C 9.40625 -45.890625 9.5625 -46.492188 9.875 -47.078125 C 10.1875 -47.671875 10.34375 -48.238281 10.34375 -48.78125 C 10.34375 -50.195312 10.597656 -51.414062 11.109375 -52.4375 C 11.617188 -53.457031 11.875 -54.550781 11.875 -55.71875 C 11.875 -56.351562 11.796875 -56.941406 11.640625 -57.484375 C 11.484375 -58.035156 11.40625 -58.664062 11.40625 -59.375 C 11.40625 -60 11.597656 -60.523438 11.984375 -60.953125 C 12.378906 -61.390625 12.578125 -61.765625 12.578125 -62.078125 C 12.503906 -62.234375 12.46875 -62.46875 12.46875 -62.78125 C 12.46875 -63.5625 12.816406 -64.207031 13.515625 -64.71875 C 14.222656 -65.226562 14.945312 -65.894531 15.6875 -66.71875 C 16.4375 -67.539062 16.8125 -68.773438 16.8125 -70.421875 C 16.8125 -70.335938 17.003906 -70.863281 17.390625 -72 C 17.785156 -73.144531 18.429688 -74.5 19.328125 -76.0625 C 20.234375 -77.632812 21.429688 -78.925781 22.921875 -79.9375 C 23.078125 -80.09375 23.347656 -80.679688 23.734375 -81.703125 C 24.128906 -82.722656 24.640625 -83.878906 25.265625 -85.171875 C 25.898438 -86.460938 26.664062 -87.597656 27.5625 -88.578125 C 28.46875 -89.554688 29.546875 -90.046875 30.796875 -90.046875 C 32.054688 -89.972656 33.289062 -89.875 34.5 -89.75 C 35.71875 -89.632812 36.914062 -89.226562 38.09375 -88.53125 C 39.113281 -87.976562 40.191406 -87.640625 41.328125 -87.515625 C 42.460938 -87.398438 43.441406 -87.164062 44.265625 -86.8125 C 45.085938 -86.46875 45.5 -85.664062 45.5 -84.40625 C 45.5 -82.914062 45.222656 -81.40625 44.671875 -79.875 C 44.117188 -78.351562 43.570312 -76.804688 43.03125 -75.234375 C 43.03125 -74.691406 42.890625 -73.789062 42.609375 -72.53125 C 42.335938 -71.28125 41.945312 -70.101562 41.4375 -69 C 40.925781 -67.90625 40.320312 -67.28125 39.625 -67.125 C 38.914062 -67.125 38.40625 -67.59375 38.09375 -68.53125 C 37.78125 -69.476562 37.582031 -70.578125 37.5 -71.828125 C 37.425781 -73.085938 37.390625 -74.1875 37.390625 -75.125 C 37.390625 -75.75 37.425781 -76.273438 37.5 -76.703125 C 37.582031 -77.140625 37.625 -77.628906 37.625 -78.171875 C 37.625 -78.410156 37.582031 -78.742188 37.5 -79.171875 C 37.425781 -79.609375 37.191406 -79.828125 36.796875 -79.828125 C 35.617188 -79.828125 34.441406 -79.179688 33.265625 -77.890625 C 32.085938 -76.597656 31.046875 -75.164062 30.140625 -73.59375 C 29.242188 -72.03125 28.484375 -70.738281 27.859375 -69.71875 C 27.941406 -69.5625 27.984375 -69.363281 27.984375 -69.125 C 27.984375 -68.65625 27.609375 -67.910156 26.859375 -66.890625 C 26.117188 -65.867188 25.515625 -64.929688 25.046875 -64.078125 C 24.804688 -63.679688 24.390625 -63.085938 23.796875 -62.296875 C 23.210938 -61.515625 22.6875 -60.8125 22.21875 -60.1875 C 21.75 -59.5625 21.515625 -59.210938 21.515625 -59.140625 C 21.515625 -58.984375 21.570312 -58.785156 21.6875 -58.546875 C 21.800781 -58.304688 21.859375 -58.109375 21.859375 -57.953125 C 21.859375 -57.953125 21.625 -57.40625 21.15625 -56.3125 C 20.6875 -55.21875 20.234375 -53.828125 19.796875 -52.140625 C 19.367188 -50.453125 19.15625 -48.707031 19.15625 -46.90625 C 19.15625 -44.007812 18.84375 -41.382812 18.21875 -39.03125 C 17.59375 -36.675781 17.28125 -34.441406 17.28125 -32.328125 C 17.28125 -31.859375 17.300781 -31.40625 17.34375 -30.96875 C 17.382812 -30.539062 17.40625 -30.09375 17.40625 -29.625 C 17.40625 -29.226562 17.363281 -28.832031 17.28125 -28.4375 C 17.207031 -28.050781 17.171875 -27.664062 17.171875 -27.28125 C 17.171875 -25.238281 17.382812 -23.175781 17.8125 -21.09375 C 18.238281 -19.019531 18.53125 -16.96875 18.6875 -14.9375 C 18.769531 -13.914062 19.066406 -12.773438 19.578125 -11.515625 C 20.085938 -10.265625 20.847656 -9.1875 21.859375 -8.28125 C 22.878906 -7.382812 24.132812 -6.9375 25.625 -6.9375 C 26.09375 -6.9375 26.5625 -6.992188 27.03125 -7.109375 C 27.507812 -7.222656 27.941406 -7.441406 28.328125 -7.765625 C 28.953125 -8.234375 29.8125 -8.816406 30.90625 -9.515625 C 32.007812 -10.222656 33.007812 -10.847656 33.90625 -11.390625 C 34.8125 -11.941406 35.265625 -12.21875 35.265625 -12.21875 C 35.265625 -12.382812 35.222656 -12.582031 35.140625 -12.8125 C 35.066406 -13.050781 35.03125 -13.285156 35.03125 -13.515625 C 35.03125 -13.910156 35.265625 -14.34375 35.734375 -14.8125 C 36.523438 -15.28125 37.3125 -16.101562 38.09375 -17.28125 C 38.875 -18.457031 39.597656 -19.570312 40.265625 -20.625 C 40.929688 -21.6875 41.421875 -22.21875 41.734375 -22.21875 C 42.046875 -22.21875 42.335938 -22.039062 42.609375 -21.6875 C 42.890625 -21.332031 43.144531 -21 43.375 -20.6875 L 43.375 -20.8125 C 43.144531 -20.414062 42.929688 -20.019531 42.734375 -19.625 C 42.535156 -19.238281 42.4375 -18.8125 42.4375 -18.34375 C 42.4375 -16.070312 41.75 -13.757812 40.375 -11.40625 C 39.007812 -9.050781 37.269531 -7.207031 35.15625 -5.875 C 35.15625 -6.03125 35.15625 -6.1875 35.15625 -6.34375 C 35.15625 -6.5 35.035156 -6.578125 34.796875 -6.578125 C 34.796875 -6.578125 34.773438 -6.535156 34.734375 -6.453125 C 34.703125 -6.378906 34.6875 -6.34375 34.6875 -6.34375 C 35 -6.1875 35.191406 -6.070312 35.265625 -6 Z M 17.515625 -45.140625 C 17.515625 -45.296875 17.398438 -45.375 17.171875 -45.375 C 17.171875 -45.21875 17.285156 -45.140625 17.515625 -45.140625 Z M 36.796875 -8.46875 C 36.796875 -8.695312 36.71875 -8.8125 36.5625 -8.8125 C 36.476562 -8.8125 36.398438 -8.773438 36.328125 -8.703125 C 36.328125 -8.703125 36.34375 -8.660156 36.375 -8.578125 C 36.414062 -8.503906 36.4375 -8.425781 36.4375 -8.34375 C 36.519531 -8.34375 36.578125 -8.363281 36.609375 -8.40625 C 36.648438 -8.445312 36.710938 -8.46875 36.796875 -8.46875 Z M 60.1875 -44.4375 C 60.1875 -43.882812 60.050781 -43.394531 59.78125 -42.96875 C 59.507812 -42.539062 59.097656 -42.285156 58.546875 -42.203125 C 57.835938 -42.128906 57.425781 -41.835938 57.3125 -41.328125 C 57.195312 -40.816406 57.097656 -40.226562 57.015625 -39.5625 C 56.941406 -38.894531 56.6875 -38.304688 56.25 -37.796875 C 55.820312 -37.285156 55.019531 -37.03125 53.84375 -37.03125 C 53.0625 -37.03125 52.671875 -37.34375 52.671875 -37.96875 C 52.671875 -38.050781 52.6875 -38.09375 52.71875 -38.09375 C 52.757812 -38.09375 52.78125 -38.128906 52.78125 -38.203125 C 53.570312 -39.066406 54.140625 -40.046875 54.484375 -41.140625 C 54.835938 -42.242188 55.304688 -43.265625 55.890625 -44.203125 C 56.484375 -45.140625 57.488281 -45.726562 58.90625 -45.96875 C 59.757812 -45.96875 60.1875 -45.457031 60.1875 -44.4375 Z M 43.375 -20.6875 C 43.144531 -21.394531 43.03125 -22.0625 43.03125 -22.6875 C 43.03125 -23.46875 43.265625 -24.40625 43.734375 -25.5 C 44.203125 -26.601562 44.710938 -27.15625 45.265625 -27.15625 C 45.578125 -27.15625 45.828125 -26.429688 46.015625 -24.984375 C 46.210938 -23.535156 46.3125 -22.378906 46.3125 -21.515625 C 46.3125 -21.273438 46.253906 -20.859375 46.140625 -20.265625 C 46.023438 -19.679688 45.8125 -19.390625 45.5 -19.390625 C 45.257812 -19.390625 45.117188 -19.757812 45.078125 -20.5 C 45.046875 -21.25 44.832031 -21.941406 44.4375 -22.578125 C 44.207031 -22.023438 43.992188 -21.671875 43.796875 -21.515625 C 43.597656 -21.359375 43.457031 -21.082031 43.375 -20.6875 Z M 47.84375 -24.921875 C 47.144531 -25.785156 46.796875 -26.726562 46.796875 -27.75 C 46.796875 -29.550781 47.457031 -31 48.78125 -32.09375 C 49.101562 -31.539062 49.265625 -30.953125 49.265625 -30.328125 C 49.265625 -29.460938 49.144531 -28.910156 48.90625 -28.671875 C 48.664062 -28.441406 48.425781 -28.328125 48.1875 -28.328125 C 47.957031 -28.328125 47.84375 -28.132812 47.84375 -27.75 C 47.925781 -27.4375 48.023438 -27.082031 48.140625 -26.6875 C 48.253906 -26.289062 48.3125 -25.898438 48.3125 -25.515625 C 48.3125 -25.429688 48.15625 -25.234375 47.84375 -24.921875 Z M 52.78125 -31.15625 C 52.78125 -31.226562 52.78125 -31.265625 52.78125 -31.265625 C 52.78125 -31.191406 52.738281 -30.859375 52.65625 -30.265625 C 52.582031 -29.679688 52.234375 -29.390625 51.609375 -29.390625 C 51.453125 -29.390625 51.273438 -29.523438 51.078125 -29.796875 C 50.878906 -30.078125 50.78125 -30.332031 50.78125 -30.5625 C 50.863281 -31.113281 51.019531 -31.800781 51.25 -32.625 C 51.488281 -33.445312 51.84375 -33.859375 52.3125 -33.859375 C 52.550781 -33.859375 52.6875 -33.757812 52.71875 -33.5625 C 52.757812 -33.363281 52.78125 -32.5625 52.78125 -31.15625 Z M 52.78125 -31.15625 "/></g></g></g><g fill="#0ea5e9" fill-opacity="1"><g transform="translate(239.853706, 129.485407)"><g><path d="M 59.71875 -60.3125 C 58.78125 -59.207031 58.191406 -58.144531 57.953125 -57.125 C 57.722656 -56.113281 57.609375 -54.941406 57.609375 -53.609375 C 57.609375 -52.273438 58.078125 -51.609375 59.015625 -51.609375 C 60.347656 -51.609375 61.207031 -51.941406 61.59375 -52.609375 C 61.988281 -53.273438 62.382812 -53.609375 62.78125 -53.609375 C 63.25 -53.609375 63.582031 -53.296875 63.78125 -52.671875 C 63.976562 -52.046875 64.078125 -51.613281 64.078125 -51.375 C 64.078125 -50.4375 63.566406 -49.203125 62.546875 -47.671875 C 61.523438 -46.140625 60.425781 -45.023438 59.25 -44.328125 C 57.445312 -43.222656 56.3125 -41.789062 55.84375 -40.03125 C 55.375 -38.269531 54.941406 -36.410156 54.546875 -34.453125 C 53.992188 -35.390625 53.679688 -35.859375 53.609375 -35.859375 C 52.742188 -35.859375 52.175781 -35.582031 51.90625 -35.03125 C 51.632812 -34.476562 51.5 -33.773438 51.5 -32.921875 C 51.5 -32.210938 51.535156 -31.445312 51.609375 -30.625 C 51.691406 -29.800781 51.734375 -28.957031 51.734375 -28.09375 C 51.734375 -27.15625 51.648438 -26.234375 51.484375 -25.328125 C 51.328125 -24.429688 50.976562 -23.59375 50.4375 -22.8125 C 50.28125 -22.65625 50.203125 -22.421875 50.203125 -22.109375 C 50.203125 -22.023438 50.21875 -21.90625 50.25 -21.75 C 50.289062 -21.59375 50.3125 -21.4375 50.3125 -21.28125 C 50.3125 -20.5 50.113281 -19.890625 49.71875 -19.453125 C 49.332031 -19.023438 49.140625 -18.378906 49.140625 -17.515625 C 49.296875 -17.441406 49.53125 -17.34375 49.84375 -17.21875 C 50.15625 -17.101562 50.3125 -16.769531 50.3125 -16.21875 C 50.3125 -15.75 50.054688 -15.203125 49.546875 -14.578125 C 49.035156 -13.953125 48.78125 -13.328125 48.78125 -12.703125 C 48.78125 -12.066406 49.054688 -11.160156 49.609375 -9.984375 C 50.160156 -8.816406 50.4375 -7.679688 50.4375 -6.578125 C 50.4375 -6.347656 50.238281 -5.679688 49.84375 -4.578125 C 49.457031 -3.484375 48.945312 -2.304688 48.3125 -1.046875 C 47.6875 0.203125 47 1.296875 46.25 2.234375 C 45.507812 3.171875 44.789062 3.640625 44.09375 3.640625 C 43.539062 3.640625 43.007812 3.328125 42.5 2.703125 C 41.988281 2.078125 41.691406 1.453125 41.609375 0.828125 C 41.453125 -2.148438 41.117188 -4.910156 40.609375 -7.453125 C 40.109375 -10.003906 39.859375 -12.734375 39.859375 -15.640625 C 39.859375 -16.109375 40.03125 -16.65625 40.375 -17.28125 C 40.726562 -17.90625 41.023438 -18.609375 41.265625 -19.390625 C 41.492188 -19.078125 41.6875 -18.785156 41.84375 -18.515625 C 42.007812 -18.242188 42.171875 -17.988281 42.328125 -17.75 C 42.640625 -17.988281 43.007812 -18.222656 43.4375 -18.453125 C 43.875 -18.691406 44.09375 -19.003906 44.09375 -19.390625 C 44.09375 -19.710938 43.757812 -20.265625 43.09375 -21.046875 C 42.425781 -21.828125 41.738281 -22.6875 41.03125 -23.625 C 40.320312 -24.570312 39.96875 -25.359375 39.96875 -25.984375 C 39.96875 -27.003906 40.144531 -27.925781 40.5 -28.75 C 40.851562 -29.570312 41.03125 -30.375 41.03125 -31.15625 C 41.03125 -31.46875 40.953125 -31.859375 40.796875 -32.328125 C 40.554688 -32.878906 40.316406 -33.703125 40.078125 -34.796875 C 39.847656 -35.890625 39.59375 -36.90625 39.3125 -37.84375 C 39.039062 -38.789062 38.671875 -39.265625 38.203125 -39.265625 C 37.179688 -39.265625 35.671875 -38.851562 33.671875 -38.03125 C 31.679688 -37.207031 29.664062 -36.382812 27.625 -35.5625 C 25.59375 -34.738281 23.945312 -34.328125 22.6875 -34.328125 C 21.664062 -34.328125 20.742188 -33.972656 19.921875 -33.265625 C 19.097656 -32.566406 18.429688 -31.84375 17.921875 -31.09375 C 17.421875 -30.351562 17.007812 -29.984375 16.6875 -29.984375 C 16.613281 -29.984375 16.476562 -30.175781 16.28125 -30.5625 C 16.082031 -30.957031 15.90625 -31.15625 15.75 -31.15625 C 15.4375 -31.15625 15.222656 -30.976562 15.109375 -30.625 C 14.992188 -30.269531 14.9375 -29.898438 14.9375 -29.515625 C 14.9375 -29.429688 14.953125 -29.3125 14.984375 -29.15625 C 15.023438 -29 15.046875 -28.84375 15.046875 -28.6875 C 15.046875 -28.375 14.96875 -28.21875 14.8125 -28.21875 C 14.5 -28.21875 14.300781 -28.410156 14.21875 -28.796875 C 14.144531 -29.191406 13.988281 -29.582031 13.75 -29.96875 C 13.519531 -30.363281 12.972656 -30.5625 12.109375 -30.5625 C 11.953125 -30.5625 11.875 -30.445312 11.875 -30.21875 C 11.875 -30.132812 11.910156 -30.015625 11.984375 -29.859375 C 12.066406 -29.703125 12.109375 -29.625 12.109375 -29.625 C 12.503906 -29.78125 12.859375 -29.914062 13.171875 -30.03125 C 13.484375 -30.15625 13.796875 -30.253906 14.109375 -30.328125 C 13.796875 -29.785156 13.441406 -29.257812 13.046875 -28.75 C 12.660156 -28.238281 12.269531 -27.671875 11.875 -27.046875 C 11.945312 -26.179688 12.003906 -25.296875 12.046875 -24.390625 C 12.085938 -23.492188 12.109375 -22.613281 12.109375 -21.75 C 12.265625 -21.195312 12.597656 -20.84375 13.109375 -20.6875 C 13.617188 -20.53125 13.875 -20.179688 13.875 -19.640625 C 13.875 -19.242188 13.65625 -18.828125 13.21875 -18.390625 C 12.789062 -17.960938 12.578125 -17.472656 12.578125 -16.921875 C 12.578125 -14.890625 12.710938 -13.5 12.984375 -12.75 C 13.265625 -12.007812 13.539062 -11.5 13.8125 -11.21875 C 14.082031 -10.945312 14.21875 -10.378906 14.21875 -9.515625 C 14.300781 -9.515625 14.300781 -9.046875 14.21875 -8.109375 C 14.144531 -7.171875 14.34375 -6.703125 14.8125 -6.703125 C 15.4375 -6.703125 15.828125 -6.9375 15.984375 -7.40625 C 16.140625 -7.875 16.375 -8.304688 16.6875 -8.703125 C 16.84375 -7.210938 17.078125 -5.757812 17.390625 -4.34375 C 17.710938 -2.9375 17.875 -1.488281 17.875 0 C 17.875 1.019531 18.046875 1.957031 18.390625 2.8125 C 18.742188 3.675781 18.921875 4.539062 18.921875 5.40625 C 18.921875 6.269531 18.707031 7.347656 18.28125 8.640625 C 17.851562 9.929688 17.304688 11.046875 16.640625 11.984375 C 15.972656 12.929688 15.285156 13.40625 14.578125 13.40625 C 14.023438 13.40625 13.179688 12.929688 12.046875 11.984375 C 10.910156 11.046875 10.34375 10.109375 10.34375 9.171875 C 10.34375 9.015625 10.363281 8.875 10.40625 8.75 C 10.445312 8.632812 10.46875 8.539062 10.46875 8.46875 C 10.46875 7.132812 10.191406 5.898438 9.640625 4.765625 C 9.085938 3.628906 8.8125 2.394531 8.8125 1.0625 C 8.8125 -0.195312 8.613281 -1.332031 8.21875 -2.34375 C 7.832031 -3.363281 7.640625 -4.425781 7.640625 -5.53125 C 7.640625 -5.757812 7.660156 -5.988281 7.703125 -6.21875 C 7.742188 -6.457031 7.800781 -6.734375 7.875 -7.046875 C 7.800781 -8.617188 7.679688 -10.1875 7.515625 -11.75 C 7.359375 -13.320312 7.28125 -14.851562 7.28125 -16.34375 C 7.28125 -16.726562 7.300781 -17.097656 7.34375 -17.453125 C 7.382812 -17.804688 7.40625 -18.179688 7.40625 -18.578125 C 7.40625 -19.117188 7.363281 -19.644531 7.28125 -20.15625 C 7.207031 -20.664062 7.171875 -21.195312 7.171875 -21.75 C 7.171875 -22.53125 7.226562 -23.3125 7.34375 -24.09375 C 7.46875 -24.882812 7.53125 -25.671875 7.53125 -26.453125 C 7.53125 -27.941406 7.445312 -29.46875 7.28125 -31.03125 C 7.125 -32.601562 7.046875 -34.054688 7.046875 -35.390625 C 7.046875 -36.722656 7.476562 -37.859375 8.34375 -38.796875 C 8.65625 -39.191406 8.867188 -39.9375 8.984375 -41.03125 C 9.109375 -42.125 9.226562 -43.296875 9.34375 -44.546875 C 9.457031 -45.804688 9.675781 -46.867188 10 -47.734375 C 10.15625 -48.203125 10.269531 -48.769531 10.34375 -49.4375 C 10.425781 -50.101562 10.46875 -50.828125 10.46875 -51.609375 C 10.46875 -52.234375 10.445312 -52.878906 10.40625 -53.546875 C 10.363281 -54.210938 10.34375 -54.898438 10.34375 -55.609375 C 10.34375 -57.097656 10.441406 -58.566406 10.640625 -60.015625 C 10.835938 -61.460938 11.328125 -62.695312 12.109375 -63.71875 C 12.265625 -63.875 12.34375 -64.109375 12.34375 -64.421875 C 12.34375 -64.890625 12.066406 -65.300781 11.515625 -65.65625 C 10.972656 -66.007812 10.703125 -66.578125 10.703125 -67.359375 C 10.703125 -68.140625 10.757812 -68.882812 10.875 -69.59375 C 10.988281 -70.300781 11.046875 -71.046875 11.046875 -71.828125 C 11.046875 -72.378906 11.003906 -72.890625 10.921875 -73.359375 C 10.847656 -73.828125 10.8125 -74.335938 10.8125 -74.890625 C 10.8125 -75.046875 10.832031 -75.140625 10.875 -75.171875 C 10.914062 -75.210938 10.9375 -75.273438 10.9375 -75.359375 C 11.320312 -76.609375 11.535156 -77.859375 11.578125 -79.109375 C 11.617188 -80.367188 11.71875 -81.625 11.875 -82.875 C 12.738281 -83.269531 13.992188 -83.644531 15.640625 -84 C 17.285156 -84.351562 18.734375 -84.53125 19.984375 -84.53125 C 21.003906 -84.53125 21.648438 -84.019531 21.921875 -83 C 22.203125 -81.976562 22.34375 -80.84375 22.34375 -79.59375 C 22.34375 -78.257812 22.300781 -77.039062 22.21875 -75.9375 C 22.144531 -74.84375 21.988281 -73.75 21.75 -72.65625 C 21.75 -72.1875 21.941406 -71.910156 22.328125 -71.828125 C 22.722656 -71.753906 23.097656 -71.71875 23.453125 -71.71875 C 23.804688 -71.71875 23.984375 -71.519531 23.984375 -71.125 C 23.984375 -70.101562 23.550781 -68.828125 22.6875 -67.296875 C 21.820312 -65.773438 21.390625 -64.269531 21.390625 -62.78125 C 21.390625 -62.382812 21.507812 -62.007812 21.75 -61.65625 C 21.988281 -61.300781 22.109375 -60.929688 22.109375 -60.546875 C 22.109375 -60.234375 21.988281 -59.898438 21.75 -59.546875 C 21.507812 -59.191406 21.390625 -58.816406 21.390625 -58.421875 C 21.390625 -58.191406 21.425781 -57.957031 21.5 -57.71875 C 21.582031 -57.488281 21.625 -57.296875 21.625 -57.140625 C 21.625 -56.585938 21.332031 -55.976562 20.75 -55.3125 C 20.164062 -54.644531 19.875 -53.921875 19.875 -53.140625 C 19.875 -52.671875 19.96875 -52.195312 20.15625 -51.71875 C 20.351562 -51.25 20.453125 -50.820312 20.453125 -50.4375 C 20.453125 -50.125 20.351562 -49.8125 20.15625 -49.5 C 19.96875 -49.1875 19.875 -48.832031 19.875 -48.4375 C 19.875 -48.28125 19.910156 -48.082031 19.984375 -47.84375 C 20.066406 -47.613281 20.109375 -47.421875 20.109375 -47.265625 C 20.109375 -46.472656 19.867188 -45.863281 19.390625 -45.4375 C 18.921875 -45.007812 18.429688 -44.578125 17.921875 -44.140625 C 17.421875 -43.710938 17.171875 -43.066406 17.171875 -42.203125 C 17.171875 -41.648438 17.328125 -41.375 17.640625 -41.375 C 18.179688 -41.375 18.488281 -41.585938 18.5625 -42.015625 C 18.644531 -42.453125 18.960938 -42.671875 19.515625 -42.671875 C 19.828125 -42.671875 20.097656 -42.613281 20.328125 -42.5 C 20.566406 -42.382812 20.84375 -42.328125 21.15625 -42.328125 C 23.195312 -42.484375 24.863281 -42.953125 26.15625 -43.734375 C 27.445312 -44.515625 28.800781 -45.0625 30.21875 -45.375 C 31.46875 -45.6875 32.894531 -46.019531 34.5 -46.375 C 36.113281 -46.726562 37.425781 -47.257812 38.4375 -47.96875 C 39.769531 -48.832031 40.789062 -49.320312 41.5 -49.4375 C 42.207031 -49.550781 42.695312 -49.664062 42.96875 -49.78125 C 43.238281 -49.90625 43.375 -50.4375 43.375 -51.375 C 43.375 -51.6875 43.351562 -52.054688 43.3125 -52.484375 C 43.28125 -52.921875 43.265625 -53.296875 43.265625 -53.609375 C 43.265625 -55.097656 43.578125 -56.585938 44.203125 -58.078125 C 44.828125 -59.566406 45.140625 -61.171875 45.140625 -62.890625 C 45.296875 -64.460938 45.707031 -66.363281 46.375 -68.59375 C 47.039062 -70.832031 47.6875 -73.066406 48.3125 -75.296875 C 48.945312 -77.535156 49.265625 -79.398438 49.265625 -80.890625 C 49.265625 -82.921875 50.101562 -84.191406 51.78125 -84.703125 C 53.46875 -85.210938 55.210938 -85.46875 57.015625 -85.46875 C 59.367188 -85.46875 61.050781 -85.132812 62.0625 -84.46875 C 63.082031 -83.800781 63.59375 -82.289062 63.59375 -79.9375 C 63.59375 -79.15625 63.257812 -77.664062 62.59375 -75.46875 C 61.9375 -73.28125 61.332031 -70.226562 60.78125 -66.3125 C 60.625 -65.675781 60.210938 -65.378906 59.546875 -65.421875 C 58.878906 -65.460938 58.546875 -65.25 58.546875 -64.78125 C 58.546875 -64.539062 58.601562 -64.265625 58.71875 -63.953125 C 58.84375 -63.640625 58.90625 -63.40625 58.90625 -63.25 C 58.90625 -63.09375 58.882812 -62.953125 58.84375 -62.828125 C 58.800781 -62.710938 58.78125 -62.578125 58.78125 -62.421875 C 58.78125 -62.035156 58.894531 -61.679688 59.125 -61.359375 C 59.363281 -61.046875 59.5625 -60.695312 59.71875 -60.3125 Z M 50.90625 -53.25 C 50.90625 -53.25 50.90625 -53.191406 50.90625 -53.078125 C 50.90625 -52.960938 50.90625 -52.90625 50.90625 -52.90625 L 51.015625 -53.140625 C 50.941406 -53.140625 50.90625 -53.140625 50.90625 -53.140625 C 50.90625 -53.140625 50.863281 -53.140625 50.78125 -53.140625 C 50.78125 -53.140625 50.800781 -53.140625 50.84375 -53.140625 C 50.882812 -53.140625 50.90625 -53.175781 50.90625 -53.25 Z M 48.203125 -24.8125 C 48.117188 -24.570312 48.035156 -24.296875 47.953125 -23.984375 C 47.878906 -23.671875 47.84375 -23.359375 47.84375 -23.046875 C 47.84375 -22.648438 48 -22.453125 48.3125 -22.453125 C 48.789062 -22.691406 49.03125 -22.96875 49.03125 -23.28125 C 49.03125 -23.59375 48.910156 -23.84375 48.671875 -24.03125 C 48.429688 -24.226562 48.234375 -24.488281 48.078125 -24.8125 C 48.160156 -24.96875 48.238281 -25.160156 48.3125 -25.390625 C 48.394531 -25.628906 48.4375 -25.828125 48.4375 -25.984375 C 48.4375 -26.140625 48.28125 -26.375 47.96875 -26.6875 C 47.8125 -26.6875 47.671875 -26.566406 47.546875 -26.328125 C 47.429688 -26.097656 47.375 -25.941406 47.375 -25.859375 C 47.53125 -25.703125 47.6875 -25.523438 47.84375 -25.328125 C 48 -25.140625 48.117188 -24.96875 48.203125 -24.8125 Z M 15.046875 -40.5625 C 15.441406 -40.5625 15.675781 -40.875 15.75 -41.5 C 15.832031 -42.125 15.875 -42.59375 15.875 -42.90625 C 15.875 -43.300781 15.832031 -43.789062 15.75 -44.375 C 15.675781 -44.96875 15.40625 -45.265625 14.9375 -45.265625 C 13.914062 -44.953125 13.40625 -44.441406 13.40625 -43.734375 C 13.40625 -43.179688 13.578125 -42.59375 13.921875 -41.96875 C 14.273438 -41.34375 14.691406 -40.832031 15.171875 -40.4375 C 15.085938 -40.363281 15.003906 -40.304688 14.921875 -40.265625 C 14.847656 -40.222656 14.773438 -40.125 14.703125 -39.96875 C 14.773438 -39.96875 14.832031 -39.945312 14.875 -39.90625 C 14.914062 -39.875 14.972656 -39.859375 15.046875 -39.859375 C 15.128906 -39.929688 15.171875 -40.046875 15.171875 -40.203125 C 15.171875 -40.359375 15.128906 -40.476562 15.046875 -40.5625 Z M 10.578125 -9.75 C 10.578125 -10.144531 10.734375 -10.632812 11.046875 -11.21875 C 11.359375 -11.8125 11.515625 -12.382812 11.515625 -12.9375 C 11.515625 -13.632812 11.300781 -14.316406 10.875 -14.984375 C 10.445312 -15.648438 10.234375 -16.257812 10.234375 -16.8125 C 10.234375 -16.96875 10.269531 -17.125 10.34375 -17.28125 C 10.425781 -17.4375 10.46875 -17.59375 10.46875 -17.75 C 10.46875 -17.988281 10.347656 -18.109375 10.109375 -18.109375 C 9.640625 -17.796875 9.34375 -17.34375 9.21875 -16.75 C 9.101562 -16.164062 9.046875 -15.5625 9.046875 -14.9375 C 9.046875 -13.914062 9.101562 -12.992188 9.21875 -12.171875 C 9.34375 -11.347656 9.835938 -10.503906 10.703125 -9.640625 C 10.703125 -9.640625 10.679688 -9.640625 10.640625 -9.640625 C 10.597656 -9.640625 10.578125 -9.675781 10.578125 -9.75 Z M 47.84375 -12.8125 C 47.769531 -13.4375 47.710938 -13.984375 47.671875 -14.453125 C 47.628906 -14.929688 47.414062 -15.171875 47.03125 -15.171875 C 46.550781 -15.171875 46.191406 -14.816406 45.953125 -14.109375 C 45.722656 -13.398438 45.609375 -12.851562 45.609375 -12.46875 C 45.609375 -12.070312 45.664062 -11.65625 45.78125 -11.21875 C 45.90625 -10.789062 46.242188 -10.578125 46.796875 -10.578125 C 47.265625 -10.816406 47.535156 -11.191406 47.609375 -11.703125 C 47.691406 -12.210938 47.769531 -12.582031 47.84375 -12.8125 Z M 11.171875 -6.46875 C 10.390625 -6.226562 10 -5.953125 10 -5.640625 C 10 -5.253906 10.09375 -4.648438 10.28125 -3.828125 C 10.476562 -3.003906 10.710938 -2.257812 10.984375 -1.59375 C 11.265625 -0.925781 11.441406 -0.550781 11.515625 -0.46875 C 11.515625 -0.78125 11.550781 -1.113281 11.625 -1.46875 C 11.707031 -1.820312 11.75 -2.15625 11.75 -2.46875 C 11.75 -3.71875 11.554688 -5.050781 11.171875 -6.46875 Z M 10.703125 -30.21875 C 10.617188 -30.53125 10.554688 -30.878906 10.515625 -31.265625 C 10.484375 -31.660156 10.226562 -31.976562 9.75 -32.21875 C 9.675781 -32.21875 9.597656 -32.175781 9.515625 -32.09375 C 9.441406 -32.019531 9.40625 -31.984375 9.40625 -31.984375 C 9.40625 -31.816406 9.421875 -31.378906 9.453125 -30.671875 C 9.492188 -29.972656 9.710938 -29.625 10.109375 -29.625 C 10.191406 -29.707031 10.289062 -29.804688 10.40625 -29.921875 C 10.519531 -30.035156 10.617188 -30.132812 10.703125 -30.21875 Z M 44.203125 -9.40625 C 43.265625 -9.40625 42.796875 -9.015625 42.796875 -8.234375 C 42.796875 -8.078125 42.890625 -7.820312 43.078125 -7.46875 C 43.273438 -7.113281 43.53125 -6.9375 43.84375 -6.9375 C 44.164062 -6.9375 44.34375 -7.128906 44.375 -7.515625 C 44.414062 -7.910156 44.4375 -8.304688 44.4375 -8.703125 C 44.4375 -9.171875 44.359375 -9.40625 44.203125 -9.40625 Z M 17.515625 -51.375 C 17.441406 -51.0625 17.382812 -50.785156 17.34375 -50.546875 C 17.300781 -50.316406 17.28125 -50.125 17.28125 -49.96875 C 17.28125 -49.570312 17.359375 -49.21875 17.515625 -48.90625 C 17.671875 -49.375 17.75 -49.726562 17.75 -49.96875 C 17.75 -50.195312 17.726562 -50.425781 17.6875 -50.65625 C 17.65625 -50.894531 17.597656 -51.132812 17.515625 -51.375 Z M 17.984375 -60.65625 C 18.535156 -60.8125 18.8125 -61.128906 18.8125 -61.609375 C 18.8125 -61.765625 18.769531 -61.9375 18.6875 -62.125 C 18.613281 -62.320312 18.457031 -62.421875 18.21875 -62.421875 C 18.21875 -62.421875 18.0625 -62.300781 17.75 -62.0625 C 17.4375 -61.832031 17.28125 -61.5625 17.28125 -61.25 C 17.28125 -60.851562 17.515625 -60.65625 17.984375 -60.65625 Z M 42.4375 -26.6875 C 42.4375 -26.84375 42.359375 -27.078125 42.203125 -27.390625 C 41.890625 -27.078125 41.734375 -26.878906 41.734375 -26.796875 C 41.734375 -26.722656 41.769531 -26.625 41.84375 -26.5 C 41.925781 -26.382812 41.96875 -26.25 41.96875 -26.09375 C 42.28125 -26.40625 42.4375 -26.601562 42.4375 -26.6875 Z M 48.546875 -32.6875 C 48.546875 -32.914062 48.429688 -33.03125 48.203125 -33.03125 C 47.734375 -33.03125 47.5 -32.796875 47.5 -32.328125 C 47.5 -32.015625 47.65625 -31.859375 47.96875 -31.859375 C 48.195312 -31.859375 48.390625 -32.132812 48.546875 -32.6875 Z M 48.203125 -28.328125 C 48.203125 -28.410156 48.21875 -28.46875 48.25 -28.5 C 48.289062 -28.539062 48.3125 -28.5625 48.3125 -28.5625 C 48.238281 -28.644531 48.179688 -28.6875 48.140625 -28.6875 C 48.097656 -28.6875 48.078125 -28.6875 48.078125 -28.6875 C 48.003906 -28.6875 47.925781 -28.644531 47.84375 -28.5625 C 47.769531 -28.488281 47.734375 -28.453125 47.734375 -28.453125 C 47.734375 -28.453125 47.75 -28.410156 47.78125 -28.328125 C 47.820312 -28.253906 47.84375 -28.21875 47.84375 -28.21875 C 47.925781 -28.21875 47.984375 -28.234375 48.015625 -28.265625 C 48.054688 -28.304688 48.117188 -28.328125 48.203125 -28.328125 Z M 56.546875 -57.609375 C 56.546875 -57.921875 56.425781 -58.078125 56.1875 -58.078125 C 56.1875 -57.992188 56.164062 -57.910156 56.125 -57.828125 C 56.09375 -57.753906 56.078125 -57.640625 56.078125 -57.484375 C 56.078125 -57.484375 56.09375 -57.460938 56.125 -57.421875 C 56.164062 -57.390625 56.226562 -57.375 56.3125 -57.375 C 56.3125 -57.375 56.390625 -57.453125 56.546875 -57.609375 Z M 17.515625 -55.015625 C 17.515625 -55.171875 17.476562 -55.289062 17.40625 -55.375 C 17.40625 -55.289062 17.382812 -55.226562 17.34375 -55.1875 C 17.300781 -55.15625 17.28125 -55.097656 17.28125 -55.015625 C 17.28125 -54.941406 17.300781 -54.882812 17.34375 -54.84375 C 17.382812 -54.800781 17.40625 -54.742188 17.40625 -54.671875 C 17.476562 -54.742188 17.515625 -54.859375 17.515625 -55.015625 Z M 15.640625 -51.609375 C 15.710938 -51.765625 15.785156 -51.898438 15.859375 -52.015625 C 15.941406 -52.140625 15.984375 -52.238281 15.984375 -52.3125 C 15.984375 -52.46875 15.941406 -52.601562 15.859375 -52.71875 C 15.785156 -52.84375 15.710938 -52.941406 15.640625 -53.015625 C 15.554688 -52.941406 15.472656 -52.84375 15.390625 -52.71875 C 15.316406 -52.601562 15.28125 -52.46875 15.28125 -52.3125 C 15.28125 -52.238281 15.316406 -52.140625 15.390625 -52.015625 C 15.472656 -51.898438 15.554688 -51.765625 15.640625 -51.609375 Z M 12.9375 -2 C 12.851562 -1.914062 12.8125 -1.796875 12.8125 -1.640625 C 12.8125 -1.640625 12.832031 -1.640625 12.875 -1.640625 C 12.914062 -1.640625 12.972656 -1.601562 13.046875 -1.53125 C 13.046875 -1.601562 13.066406 -1.660156 13.109375 -1.703125 C 13.148438 -1.742188 13.171875 -1.800781 13.171875 -1.875 C 13.171875 -1.875 13.128906 -1.894531 13.046875 -1.9375 C 12.972656 -1.976562 12.9375 -2 12.9375 -2 Z M 47.5 -18.6875 C 47.34375 -18.375 47.265625 -18.140625 47.265625 -17.984375 C 47.265625 -17.828125 47.34375 -17.75 47.5 -17.75 C 47.65625 -17.75 47.734375 -17.828125 47.734375 -17.984375 C 47.734375 -18.140625 47.65625 -18.375 47.5 -18.6875 Z M 13.515625 -23.625 C 13.515625 -23.863281 13.492188 -24.082031 13.453125 -24.28125 C 13.421875 -24.476562 13.40625 -24.65625 13.40625 -24.8125 C 13.40625 -24.96875 13.519531 -25.0625 13.75 -25.09375 C 13.988281 -25.132812 14.144531 -25.15625 14.21875 -25.15625 C 14.300781 -25.15625 14.359375 -25.132812 14.390625 -25.09375 C 14.429688 -25.0625 14.453125 -25.046875 14.453125 -25.046875 C 14.378906 -24.566406 14.300781 -24.269531 14.21875 -24.15625 C 14.144531 -24.039062 13.910156 -23.863281 13.515625 -23.625 Z M 59.84375 -60.1875 C 59.601562 -60.582031 59.484375 -60.9375 59.484375 -61.25 C 59.484375 -61.488281 59.5625 -61.78125 59.71875 -62.125 C 59.875 -62.476562 60.109375 -62.65625 60.421875 -62.65625 C 60.578125 -62.65625 60.65625 -62.578125 60.65625 -62.421875 C 60.65625 -62.191406 60.535156 -61.859375 60.296875 -61.421875 C 60.066406 -60.992188 59.875 -60.625 59.71875 -60.3125 C 59.71875 -60.3125 59.738281 -60.289062 59.78125 -60.25 C 59.820312 -60.207031 59.84375 -60.1875 59.84375 -60.1875 Z M 14.109375 -13.40625 C 13.953125 -13.09375 13.832031 -12.9375 13.75 -12.9375 C 13.519531 -12.9375 13.40625 -13.09375 13.40625 -13.40625 C 13.476562 -13.5625 13.535156 -13.695312 13.578125 -13.8125 C 13.617188 -13.925781 13.675781 -14.023438 13.75 -14.109375 C 13.988281 -13.867188 14.109375 -13.632812 14.109375 -13.40625 Z M 10.46875 -13.171875 C 10.46875 -13.085938 10.445312 -13.046875 10.40625 -13.046875 C 10.363281 -13.046875 10.34375 -13.007812 10.34375 -12.9375 C 10.269531 -13.007812 10.210938 -13.066406 10.171875 -13.109375 C 10.128906 -13.148438 10.109375 -13.171875 10.109375 -13.171875 C 10.109375 -13.242188 10.1875 -13.359375 10.34375 -13.515625 C 10.34375 -13.441406 10.363281 -13.382812 10.40625 -13.34375 C 10.445312 -13.300781 10.46875 -13.242188 10.46875 -13.171875 Z M 10.46875 -13.171875 "/></g></g></g><g fill="#0ea5e9" fill-opacity="1"><g transform="translate(308.627082, 129.485407)"><g><path d="M 10.34375 -31.15625 C 10.582031 -33.664062 10.71875 -35.664062 10.75 -37.15625 C 10.789062 -38.644531 11.363281 -40.210938 12.46875 -41.859375 C 12.9375 -42.484375 13.285156 -43.476562 13.515625 -44.84375 C 13.753906 -46.21875 14.050781 -47.707031 14.40625 -49.3125 C 14.757812 -50.925781 15.25 -52.316406 15.875 -53.484375 C 16.101562 -54.117188 16.375 -54.707031 16.6875 -55.25 C 17.007812 -55.800781 17.207031 -56.429688 17.28125 -57.140625 C 17.363281 -57.835938 17.65625 -58.421875 18.15625 -58.890625 C 18.664062 -59.367188 18.960938 -59.957031 19.046875 -60.65625 C 19.117188 -61.289062 19.191406 -62.019531 19.265625 -62.84375 C 19.347656 -63.664062 19.550781 -64.347656 19.875 -64.890625 C 20.96875 -66.617188 21.941406 -68.695312 22.796875 -71.125 C 23.660156 -73.550781 24.582031 -75.941406 25.5625 -78.296875 C 26.550781 -80.648438 27.726562 -82.609375 29.09375 -84.171875 C 30.46875 -85.742188 32.210938 -86.53125 34.328125 -86.53125 C 34.640625 -86.53125 34.972656 -86.53125 35.328125 -86.53125 C 35.679688 -86.53125 36.015625 -86.53125 36.328125 -86.53125 C 37.972656 -86.53125 39.265625 -85.921875 40.203125 -84.703125 C 41.140625 -83.484375 41.84375 -81.953125 42.3125 -80.109375 C 42.789062 -78.273438 43.085938 -76.394531 43.203125 -74.46875 C 43.316406 -72.550781 43.375 -70.890625 43.375 -69.484375 C 43.375 -68.460938 43.375 -67.71875 43.375 -67.25 C 43.375 -66.78125 43.296875 -66.269531 43.140625 -65.71875 C 44.003906 -64.382812 44.515625 -62.582031 44.671875 -60.3125 C 44.828125 -58.039062 44.984375 -56.003906 45.140625 -54.203125 C 45.378906 -52.941406 45.65625 -51.742188 45.96875 -50.609375 C 46.28125 -49.472656 46.4375 -48.238281 46.4375 -46.90625 C 46.4375 -46.28125 46.414062 -45.65625 46.375 -45.03125 C 46.332031 -44.40625 46.3125 -43.773438 46.3125 -43.140625 C 46.3125 -40.867188 46.679688 -38.753906 47.421875 -36.796875 C 48.171875 -34.835938 49.289062 -32.722656 50.78125 -30.453125 C 50.550781 -29.828125 50.316406 -29.195312 50.078125 -28.5625 C 49.847656 -27.9375 49.613281 -27.3125 49.375 -26.6875 C 49.6875 -25.507812 49.976562 -24.097656 50.25 -22.453125 C 50.53125 -20.804688 50.828125 -19.296875 51.140625 -17.921875 C 51.453125 -16.554688 51.765625 -15.640625 52.078125 -15.171875 C 52.472656 -14.691406 52.785156 -13.804688 53.015625 -12.515625 C 53.253906 -11.222656 53.472656 -9.851562 53.671875 -8.40625 C 53.867188 -6.957031 54.160156 -5.679688 54.546875 -4.578125 C 54.941406 -3.410156 55.195312 -2.21875 55.3125 -1 C 55.425781 0.21875 55.484375 1.492188 55.484375 2.828125 C 55.171875 3.054688 54.859375 3.269531 54.546875 3.46875 C 54.234375 3.664062 53.921875 3.84375 53.609375 4 C 52.828125 4.625 51.882812 5.484375 50.78125 6.578125 C 49.6875 7.679688 48.707031 8.234375 47.84375 8.234375 C 47.300781 8.234375 46.867188 7.9375 46.546875 7.34375 C 46.234375 6.757812 45.882812 6.347656 45.5 6.109375 C 44.007812 5.242188 43.03125 4.125 42.5625 2.75 C 42.09375 1.382812 41.738281 0 41.5 -1.40625 C 41.257812 -2.664062 40.925781 -3.863281 40.5 -5 C 40.070312 -6.132812 39.859375 -7.445312 39.859375 -8.9375 C 39.859375 -9.164062 39.875 -9.398438 39.90625 -9.640625 C 39.945312 -9.878906 39.96875 -10.113281 39.96875 -10.34375 C 39.96875 -10.96875 39.890625 -12.140625 39.734375 -13.859375 C 39.578125 -15.585938 39.320312 -17.410156 38.96875 -19.328125 C 38.613281 -21.253906 38.140625 -22.921875 37.546875 -24.328125 C 36.960938 -25.742188 36.28125 -26.453125 35.5 -26.453125 C 34.875 -26.453125 34.03125 -26.273438 32.96875 -25.921875 C 31.914062 -25.566406 30.957031 -25.273438 30.09375 -25.046875 C 29.539062 -24.410156 28.832031 -24.09375 27.96875 -24.09375 C 27.113281 -24.09375 26.375 -23.859375 25.75 -23.390625 C 25.4375 -23.160156 25.125 -23.046875 24.8125 -23.046875 C 24.570312 -23.046875 24.351562 -23.0625 24.15625 -23.09375 C 23.957031 -23.132812 23.742188 -23.195312 23.515625 -23.28125 C 23.203125 -23.28125 22.492188 -22.960938 21.390625 -22.328125 C 20.296875 -21.703125 19.160156 -21.390625 17.984375 -21.390625 C 16.890625 -21.390625 15.929688 -20.601562 15.109375 -19.03125 C 14.285156 -17.46875 13.578125 -15.585938 12.984375 -13.390625 C 12.398438 -11.203125 11.851562 -9.109375 11.34375 -7.109375 C 10.832031 -5.109375 10.34375 -3.679688 9.875 -2.828125 C 9.71875 -2.429688 9.34375 -1.546875 8.75 -0.171875 C 8.164062 1.191406 7.40625 2.5 6.46875 3.75 C 5.53125 5.007812 4.429688 5.640625 3.171875 5.640625 C 2.460938 5.640625 1.753906 5.34375 1.046875 4.75 C 0.347656 4.164062 0 3.5625 0 2.9375 C 0 2.707031 0.0390625 2.507812 0.125 2.34375 C 0.75 0.78125 1.394531 -0.957031 2.0625 -2.875 C 2.726562 -4.800781 3.21875 -6.703125 3.53125 -8.578125 C 3.84375 -10.066406 4.289062 -11.789062 4.875 -13.75 C 5.46875 -15.707031 6.035156 -17.707031 6.578125 -19.75 C 7.128906 -21.789062 7.40625 -23.632812 7.40625 -25.28125 C 7.40625 -26.0625 7.226562 -26.84375 6.875 -27.625 C 6.519531 -28.40625 6.34375 -29.191406 6.34375 -29.984375 C 6.34375 -30.679688 6.65625 -31.03125 7.28125 -31.03125 C 7.601562 -31.03125 7.898438 -31.007812 8.171875 -30.96875 C 8.441406 -30.9375 8.734375 -30.921875 9.046875 -30.921875 C 9.285156 -30.921875 9.71875 -31 10.34375 -31.15625 Z M 24.09375 -50.90625 C 24.09375 -50.351562 24.09375 -49.820312 24.09375 -49.3125 C 24.09375 -48.800781 24.015625 -48.3125 23.859375 -47.84375 C 23.785156 -47.300781 23.414062 -46.378906 22.75 -45.078125 C 22.082031 -43.785156 21.414062 -42.316406 20.75 -40.671875 C 20.082031 -39.023438 19.75 -37.300781 19.75 -35.5 C 19.75 -34.957031 19.785156 -34.351562 19.859375 -33.6875 C 19.941406 -33.019531 20.257812 -32.6875 20.8125 -32.6875 C 22.84375 -32.6875 24.972656 -32.921875 27.203125 -33.390625 C 29.441406 -33.859375 31.582031 -34.25 33.625 -34.5625 C 34.488281 -34.957031 35 -35.445312 35.15625 -36.03125 C 35.3125 -36.625 35.390625 -37.269531 35.390625 -37.96875 C 35.390625 -40.875 34.976562 -44.1875 34.15625 -47.90625 C 33.332031 -51.625 32.921875 -55.171875 32.921875 -58.546875 C 32.921875 -58.859375 32.957031 -59.132812 33.03125 -59.375 C 33.03125 -59.375 33.03125 -59.351562 33.03125 -59.3125 C 33.03125 -59.269531 33.03125 -59.25 33.03125 -59.25 C 33.03125 -59.25 32.910156 -59.738281 32.671875 -60.71875 C 32.441406 -61.695312 32.171875 -62.695312 31.859375 -63.71875 C 31.546875 -64.738281 31.269531 -65.25 31.03125 -65.25 C 30.875 -65.25 30.484375 -64.660156 29.859375 -63.484375 C 29.234375 -62.304688 28.664062 -61.050781 28.15625 -59.71875 C 27.644531 -58.382812 27.390625 -57.40625 27.390625 -56.78125 C 27.390625 -54.269531 26.289062 -52.3125 24.09375 -50.90625 Z M 24.09375 -50.90625 "/></g></g></g></g></g></svg>