<svg xmlns="http://www.w3.org/2000/svg" xmlns:xlink="http://www.w3.org/1999/xlink" width="500" zoomAndPan="magnify" viewBox="0 0 375 374.999991" height="500" preserveAspectRatio="xMidYMid meet" version="1.0"><defs><clipPath id="12fc842337"><path d="M 205 7.859375 L 227 7.859375 L 227 70 L 205 70 Z M 205 7.859375 " clip-rule="nonzero"/></clipPath></defs><path fill="#0ea5e9" d="M 256.410156 58.746094 C 256.574219 58.503906 221.914062 66.230469 241.195312 108.78125 C 256.167969 141.8125 209.710938 176.148438 214.347656 125.296875 C 215.40625 113.664062 214.347656 101.460938 199.539062 94.625 C 156.503906 74.613281 173.507812 52.808594 173.832031 19.371094 C 138.035156 54.515625 151.132812 85.675781 164.230469 110.574219 C 177.574219 136.117188 119.566406 131.5625 126.480469 95.359375 C 111.105469 102.679688 109.070312 125.21875 113.625 139.535156 C 116.390625 148.484375 128.675781 183.308594 110.371094 178.996094 C 103.945312 177.53125 97.761719 171.511719 97.761719 164.023438 C 90.683594 165.570312 41.542969 192.746094 124.367188 235.214844 C 147.144531 247.011719 133.558594 180.785156 145.4375 178.832031 C 145.4375 185.746094 146.738281 199.660156 151.863281 208.851562 C 159.59375 222.359375 166.914062 220.648438 164.066406 204.132812 C 160.652344 184.203125 151.050781 179.238281 163.011719 158.65625 C 163.417969 188.433594 204.585938 222.195312 189.777344 178.019531 C 185.871094 166.628906 186.605469 153.53125 185.953125 151.414062 C 191.324219 167.035156 197.101562 174.601562 201.980469 179.320312 C 224.519531 201.367188 214.265625 214.304688 212.640625 230.738281 C 333.457031 149.707031 229.886719 90.800781 256.410156 58.746094 Z M 256.410156 58.746094 " fill-opacity="1" fill-rule="evenodd"/><g clip-path="url(#12fc842337)"><path fill="#0ea5e9" d="M 220.042969 7.980469 C 220.042969 34.746094 195.148438 33.933594 209.792969 69.324219 C 209.058594 49.636719 238.511719 32.0625 220.042969 7.980469 Z M 220.042969 7.980469 " fill-opacity="1" fill-rule="evenodd"/></g><path fill="#0ea5e9" d="M 136 9.933594 C 136 36.699219 110.941406 35.886719 125.75 71.277344 C 125.015625 51.667969 154.550781 33.933594 136 9.933594 Z M 136 9.933594 " fill-opacity="1" fill-rule="evenodd"/><path fill="#0f0906" d="M 319.136719 205.109375 C 318.488281 202.996094 317.023438 200.390625 315.3125 198.925781 C 310.839844 195.347656 300.75 194.453125 287.164062 203.160156 C 279.921875 207.714844 273.65625 212.1875 266.824219 216.90625 L 229.480469 246.277344 C 228.179688 247.578125 229.316406 246.117188 228.015625 247.988281 L 238.753906 252.296875 C 262.59375 237.328125 293.917969 219.023438 311 207.957031 C 316.207031 204.542969 311.816406 199.007812 307.179688 197.625 C 311.082031 197.464844 319.789062 202.75 315.800781 208.363281 C 315.3125 209.015625 314.742188 209.667969 313.847656 210.480469 C 301.238281 220.8125 256.816406 244.40625 240.546875 253.195312 L 242.089844 253.84375 C 243.636719 254.496094 246.648438 256.691406 249.65625 256.609375 C 253.886719 256.203125 281.875 241.234375 290.582031 237.246094 C 305.386719 230.738281 324.261719 219.917969 319.136719 205.109375 Z M 302.296875 209.992188 C 300.179688 211.050781 296.765625 211.863281 294.972656 209.585938 C 292.777344 206.980469 296.683594 204.621094 301.15625 204.378906 C 307.664062 203.808594 307.257812 207.632812 302.296875 209.992188 Z M 302.296875 209.992188 " fill-opacity="1" fill-rule="evenodd"/><path fill="#0f0906" d="M 246.972656 312.339844 C 253.644531 306.726562 258.117188 300.949219 260.886719 296.882812 C 262.269531 294.359375 263.976562 290.375 263.894531 285.410156 C 263.8125 275.160156 256.816406 267.839844 252.097656 263.769531 C 240.789062 253.925781 227.203125 248.71875 212.476562 245.546875 C 202.226562 243.429688 193.4375 241.964844 180.503906 241.640625 C 165.289062 241.398438 149.992188 242.941406 135.429688 247.011719 C 125.097656 249.859375 111.59375 255.632812 103.210938 262.386719 C 94.261719 269.628906 88.648438 278.089844 90.113281 289.886719 C 91.007812 297.859375 96.785156 304.042969 103.132812 309.25 C 117.855469 321.453125 138.601562 328.125 160 330.402344 C 152.269531 331.460938 135.023438 332.761719 116.3125 324.136719 C 105.246094 319.09375 97.597656 312.339844 92.878906 307.378906 C 92.878906 308.925781 93.042969 311.285156 93.53125 314.050781 C 97.191406 334.878906 115.902344 348.058594 124.367188 352.207031 C 153.734375 366.605469 204.828125 367.015625 233.710938 351.148438 C 239.648438 347.894531 262.917969 329.183594 261.859375 306.15625 C 261.78125 304.367188 261.535156 302.824219 261.371094 301.847656 C 258.933594 304.9375 255.109375 309.167969 249.738281 313.316406 C 240.546875 320.394531 231.1875 323.648438 230.945312 323.242188 C 230.621094 322.835938 238.347656 319.664062 246.972656 312.339844 Z M 111.511719 308.191406 C 116.390625 283.945312 152.027344 269.546875 175.214844 276.21875 C 165.289062 277.519531 127.621094 283.945312 111.511719 308.191406 Z M 180.175781 276.054688 C 203.769531 269.871094 237.699219 283.378906 239.40625 300.871094 C 224.03125 283.945312 195.554688 277.195312 180.175781 276.054688 Z M 180.175781 276.054688 " fill-opacity="1" fill-rule="evenodd"/></svg>