<svg xmlns="http://www.w3.org/2000/svg" xmlns:xlink="http://www.w3.org/1999/xlink" width="500" zoomAndPan="magnify" viewBox="0 0 375 374.999991" height="500" preserveAspectRatio="xMidYMid meet" version="1.0"><defs><g/><clipPath id="9ac180d577"><path d="M 310 120.75 L 319 120.75 L 319 144 L 310 144 Z M 310 120.75 " clip-rule="nonzero"/></clipPath><clipPath id="0a7e89e7f3"><rect x="0" width="248" y="0" height="118"/></clipPath></defs><path fill="#0ea5e9" d="M 329.773438 139.660156 C 329.835938 139.566406 316.957031 142.441406 324.121094 158.25 C 329.683594 170.523438 312.421875 183.28125 314.144531 164.386719 C 314.539062 160.066406 314.144531 155.53125 308.644531 152.992188 C 292.652344 145.554688 298.96875 137.453125 299.089844 125.027344 C 285.789062 138.085938 290.65625 149.664062 295.523438 158.914062 C 300.480469 168.410156 278.925781 166.714844 281.496094 153.261719 C 275.78125 155.984375 275.027344 164.355469 276.71875 169.679688 C 277.746094 173.003906 282.3125 185.941406 275.511719 184.339844 C 273.121094 183.796875 270.824219 181.558594 270.824219 178.777344 C 268.195312 179.351562 249.933594 189.449219 280.710938 205.230469 C 289.175781 209.613281 284.125 185.003906 288.539062 184.28125 C 288.539062 186.847656 289.023438 192.019531 290.929688 195.433594 C 293.800781 200.453125 296.519531 199.816406 295.464844 193.679688 C 294.195312 186.273438 290.625 184.429688 295.070312 176.78125 C 295.222656 187.847656 310.519531 200.394531 305.015625 183.976562 C 303.566406 179.746094 303.835938 174.878906 303.59375 174.089844 C 305.589844 179.894531 307.738281 182.707031 309.550781 184.460938 C 317.925781 192.652344 314.117188 197.460938 313.511719 203.566406 C 358.402344 173.457031 319.921875 151.570312 329.773438 139.660156 Z M 329.773438 139.660156 " fill-opacity="1" fill-rule="evenodd"/><g clip-path="url(#9ac180d577)"><path fill="#0ea5e9" d="M 316.261719 120.792969 C 316.261719 130.742188 307.011719 130.4375 312.453125 143.589844 C 312.179688 136.273438 323.125 129.742188 316.261719 120.792969 Z M 316.261719 120.792969 " fill-opacity="1" fill-rule="evenodd"/></g><path fill="#0ea5e9" d="M 285.035156 121.519531 C 285.035156 131.464844 275.722656 131.164062 281.222656 144.3125 C 280.953125 137.027344 291.925781 130.4375 285.035156 121.519531 Z M 285.035156 121.519531 " fill-opacity="1" fill-rule="evenodd"/><path fill="#0f0906" d="M 353.082031 194.042969 C 352.839844 193.257812 352.296875 192.289062 351.664062 191.746094 C 350 190.417969 346.25 190.082031 341.203125 193.320312 C 338.511719 195.011719 336.183594 196.675781 333.644531 198.425781 L 319.769531 209.339844 C 319.285156 209.824219 319.707031 209.28125 319.222656 209.976562 L 323.214844 211.578125 C 332.074219 206.015625 343.710938 199.214844 350.058594 195.101562 C 351.996094 193.832031 350.363281 191.777344 348.640625 191.261719 C 350.089844 191.203125 353.324219 193.167969 351.84375 195.253906 C 351.664062 195.496094 351.449219 195.738281 351.117188 196.039062 C 346.433594 199.878906 329.925781 208.644531 323.878906 211.910156 L 324.453125 212.152344 C 325.027344 212.394531 326.148438 213.210938 327.265625 213.179688 C 328.839844 213.027344 339.238281 207.464844 342.472656 205.984375 C 347.972656 203.566406 354.988281 199.546875 353.082031 194.042969 Z M 346.824219 195.859375 C 346.039062 196.25 344.769531 196.554688 344.105469 195.707031 C 343.289062 194.738281 344.738281 193.863281 346.402344 193.773438 C 348.820312 193.558594 348.667969 194.980469 346.824219 195.859375 Z M 346.824219 195.859375 " fill-opacity="1" fill-rule="evenodd"/><path fill="#0f0906" d="M 326.269531 233.886719 C 328.746094 231.800781 330.410156 229.65625 331.4375 228.144531 C 331.953125 227.207031 332.585938 225.726562 332.554688 223.882812 C 332.527344 220.074219 329.925781 217.351562 328.171875 215.839844 C 323.972656 212.183594 318.921875 210.246094 313.449219 209.070312 C 309.640625 208.28125 306.375 207.738281 301.570312 207.617188 C 295.917969 207.527344 290.234375 208.101562 284.820312 209.613281 C 280.984375 210.671875 275.964844 212.816406 272.851562 215.328125 C 269.523438 218.015625 267.4375 221.160156 267.984375 225.542969 C 268.316406 228.507812 270.460938 230.804688 272.820312 232.738281 C 278.292969 237.273438 286 239.753906 293.953125 240.601562 C 291.078125 240.992188 284.671875 241.476562 277.71875 238.273438 C 273.605469 236.398438 270.765625 233.886719 269.011719 232.042969 C 269.011719 232.617188 269.070312 233.496094 269.253906 234.523438 C 270.613281 242.261719 277.566406 247.160156 280.710938 248.703125 C 291.625 254.050781 310.609375 254.203125 321.339844 248.308594 C 323.546875 247.097656 332.195312 240.144531 331.800781 231.589844 C 331.769531 230.925781 331.679688 230.351562 331.621094 229.988281 C 330.710938 231.136719 329.292969 232.710938 327.296875 234.25 C 323.878906 236.882812 320.402344 238.089844 320.3125 237.941406 C 320.191406 237.789062 323.0625 236.609375 326.269531 233.886719 Z M 275.933594 232.347656 C 277.746094 223.339844 290.988281 217.988281 299.605469 220.464844 C 295.917969 220.949219 281.917969 223.339844 275.933594 232.347656 Z M 301.449219 220.40625 C 310.214844 218.109375 322.820312 223.125 323.457031 229.625 C 317.742188 223.339844 307.164062 220.828125 301.449219 220.40625 Z M 301.449219 220.40625 " fill-opacity="1" fill-rule="evenodd"/><g transform="matrix(1, 0, 0, 1, 18, 133)"><g clip-path="url(#0a7e89e7f3)"><g fill="#0ea5e9" fill-opacity="1"><g transform="translate(0.577604, 87.097694)"><g><path d="M 31.5625 -47.265625 C 32.289062 -47.523438 32.929688 -48.226562 33.484375 -49.375 C 34.035156 -50.53125 34.46875 -51.453125 34.78125 -52.140625 C 35.09375 -52.867188 35.445312 -53.3125 35.84375 -53.46875 C 36.238281 -53.625 36.851562 -53.960938 37.6875 -54.484375 C 38.84375 -53.910156 39.757812 -53.414062 40.4375 -53 C 41.113281 -52.582031 41.453125 -51.71875 41.453125 -50.40625 C 41.453125 -49.726562 41.082031 -49.035156 40.34375 -48.328125 C 39.613281 -47.617188 39.09375 -46.847656 38.78125 -46.015625 C 38.570312 -45.585938 38.21875 -45.253906 37.71875 -45.015625 C 37.226562 -44.785156 36.984375 -44.539062 36.984375 -44.28125 C 36.984375 -44.28125 36.863281 -43.9375 36.625 -43.25 C 36.394531 -42.570312 36.054688 -41.75 35.609375 -40.78125 C 35.160156 -39.820312 34.609375 -38.945312 33.953125 -38.15625 C 33.296875 -37.375 32.523438 -36.851562 31.640625 -36.59375 C 31.066406 -36.4375 30.582031 -36.09375 30.1875 -35.5625 C 29.789062 -35.039062 29.410156 -34.492188 29.046875 -33.921875 C 28.679688 -33.347656 28.160156 -32.925781 27.484375 -32.65625 C 27.535156 -32.65625 27.347656 -32.429688 26.921875 -31.984375 C 26.503906 -31.546875 26.019531 -31.007812 25.46875 -30.375 C 24.925781 -29.75 24.429688 -29.175781 23.984375 -28.65625 C 23.535156 -28.132812 23.285156 -27.796875 23.234375 -27.640625 C 23.078125 -27.003906 22.738281 -26.460938 22.21875 -26.015625 C 21.695312 -25.578125 21.210938 -25.132812 20.765625 -24.6875 C 20.316406 -24.25 20.09375 -23.738281 20.09375 -23.15625 C 20.09375 -23 20.144531 -22.816406 20.25 -22.609375 C 21.195312 -20.460938 22.3125 -18.222656 23.59375 -15.890625 C 24.875 -13.566406 26.457031 -11.644531 28.34375 -10.125 C 28.5 -9.96875 28.957031 -9.613281 29.71875 -9.0625 C 30.476562 -8.519531 31.34375 -8 32.3125 -7.5 C 33.28125 -7 34.101562 -6.75 34.78125 -6.75 C 35.40625 -6.75 35.8125 -6.628906 36 -6.390625 C 36.1875 -6.160156 36.28125 -5.785156 36.28125 -5.265625 C 36.28125 -4.367188 35.847656 -3.773438 34.984375 -3.484375 C 34.117188 -3.203125 33.238281 -3.0625 32.34375 -3.0625 C 31.09375 -3.0625 29.707031 -3.398438 28.1875 -4.078125 C 26.664062 -4.765625 25.1875 -5.628906 23.75 -6.671875 C 22.3125 -7.722656 21.066406 -8.796875 20.015625 -9.890625 C 19.390625 -10.566406 18.679688 -11.441406 17.890625 -12.515625 C 17.109375 -13.585938 16.378906 -14.554688 15.703125 -15.421875 C 15.023438 -16.285156 14.53125 -16.71875 14.21875 -16.71875 C 14.050781 -16.71875 13.863281 -16.3125 13.65625 -15.5 C 13.445312 -14.695312 13.34375 -14.109375 13.34375 -13.734375 C 13.34375 -13.160156 13.421875 -12.503906 13.578125 -11.765625 C 13.734375 -11.035156 13.8125 -10.226562 13.8125 -9.34375 C 13.8125 -9.082031 13.769531 -8.804688 13.6875 -8.515625 C 13.613281 -8.234375 13.578125 -7.957031 13.578125 -7.6875 C 13.578125 -7.582031 13.585938 -7.453125 13.609375 -7.296875 C 13.640625 -7.140625 13.65625 -7.007812 13.65625 -6.90625 L 13.734375 -6.90625 C 13.472656 -6.75 13.34375 -6.566406 13.34375 -6.359375 C 13.34375 -6.148438 13.472656 -5.914062 13.734375 -5.65625 L 13.65625 -5.65625 C 13.96875 -4.8125 14.125 -3.84375 14.125 -2.75 C 14.125 -2.28125 14.097656 -1.804688 14.046875 -1.328125 C 13.992188 -0.859375 13.835938 -0.519531 13.578125 -0.3125 C 13.109375 0.15625 12.925781 0.675781 13.03125 1.25 C 13.132812 1.832031 12.898438 2.332031 12.328125 2.75 C 12.117188 2.90625 12.023438 3.164062 12.046875 3.53125 C 12.078125 3.894531 11.882812 4.257812 11.46875 4.625 C 11.257812 4.519531 11.007812 4.425781 10.71875 4.34375 C 10.425781 4.269531 10.148438 4.207031 9.890625 4.15625 C 9.421875 4 8.9375 3.59375 8.4375 2.9375 C 7.9375 2.289062 7.515625 1.585938 7.171875 0.828125 C 6.835938 0.0664062 6.671875 -0.546875 6.671875 -1.015625 C 6.671875 -5.046875 6.539062 -9.078125 6.28125 -13.109375 C 6.019531 -17.140625 5.890625 -21.171875 5.890625 -25.203125 C 5.890625 -27.347656 5.925781 -29.503906 6 -31.671875 C 6.082031 -33.847656 6.125 -36.035156 6.125 -38.234375 C 6.125 -38.804688 6.019531 -39.34375 5.8125 -39.84375 C 5.601562 -40.34375 5.5 -40.957031 5.5 -41.6875 C 5.5 -42.582031 5.664062 -43.460938 6 -44.328125 C 6.34375 -45.191406 6.515625 -46.015625 6.515625 -46.796875 C 6.515625 -48.628906 6.734375 -50.460938 7.171875 -52.296875 C 7.617188 -54.128906 7.84375 -55.929688 7.84375 -57.703125 C 7.84375 -59.015625 8.1875 -60.25 8.875 -61.40625 C 11.851562 -61.1875 13.96875 -60.515625 15.21875 -59.390625 C 16.476562 -58.265625 17.109375 -56.550781 17.109375 -54.25 C 17.109375 -53.414062 16.925781 -52.566406 16.5625 -51.703125 C 16.195312 -50.835938 16.015625 -50.066406 16.015625 -49.390625 C 16.015625 -48.546875 15.84375 -47.675781 15.5 -46.78125 C 15.164062 -45.894531 15 -44.460938 15 -42.484375 C 15 -41.898438 14.8125 -41.082031 14.4375 -40.03125 C 14.070312 -38.988281 13.890625 -38.257812 13.890625 -37.84375 C 13.890625 -37.6875 13.898438 -37.515625 13.921875 -37.328125 C 13.953125 -37.148438 13.96875 -36.984375 13.96875 -36.828125 C 13.96875 -35.984375 13.898438 -35.128906 13.765625 -34.265625 C 13.640625 -33.398438 13.578125 -32.707031 13.578125 -32.1875 C 13.578125 -31.664062 13.695312 -31.113281 13.9375 -30.53125 C 14.175781 -29.957031 14.789062 -29.671875 15.78125 -29.671875 C 16.613281 -29.671875 17.410156 -30.085938 18.171875 -30.921875 C 18.929688 -31.765625 19.640625 -32.671875 20.296875 -33.640625 C 20.953125 -34.609375 21.566406 -35.222656 22.140625 -35.484375 C 22.398438 -35.640625 22.859375 -36.148438 23.515625 -37.015625 C 24.171875 -37.878906 24.929688 -38.859375 25.796875 -39.953125 C 26.660156 -41.054688 27.535156 -42.03125 28.421875 -42.875 C 29.097656 -43.5 29.695312 -44.21875 30.21875 -45.03125 C 30.75 -45.84375 31.195312 -46.585938 31.5625 -47.265625 Z M 9.5 -43.34375 C 9.550781 -43.34375 9.585938 -43.351562 9.609375 -43.375 C 9.640625 -43.40625 9.679688 -43.421875 9.734375 -43.421875 C 9.835938 -43.421875 9.941406 -43.394531 10.046875 -43.34375 C 10.148438 -43.289062 10.253906 -43.238281 10.359375 -43.1875 C 10.460938 -43.1875 10.515625 -43.316406 10.515625 -43.578125 C 10.515625 -43.785156 10.460938 -43.890625 10.359375 -43.890625 C 10.253906 -43.890625 10.109375 -43.820312 9.921875 -43.6875 C 9.742188 -43.5625 9.601562 -43.445312 9.5 -43.34375 Z M 12.640625 -31.484375 C 12.535156 -31.484375 12.40625 -31.484375 12.25 -31.484375 C 12.09375 -31.484375 12.015625 -31.378906 12.015625 -31.171875 C 12.015625 -31.015625 12.078125 -30.882812 12.203125 -30.78125 C 12.335938 -30.675781 12.429688 -30.625 12.484375 -30.625 C 12.640625 -30.726562 12.71875 -30.804688 12.71875 -30.859375 C 12.71875 -31.015625 12.703125 -31.144531 12.671875 -31.25 C 12.648438 -31.351562 12.613281 -31.457031 12.5625 -31.5625 C 12.875 -31.820312 13.03125 -32.132812 13.03125 -32.5 C 13.03125 -32.707031 12.976562 -32.863281 12.875 -32.96875 C 12.769531 -32.8125 12.703125 -32.585938 12.671875 -32.296875 C 12.648438 -32.015625 12.640625 -31.742188 12.640625 -31.484375 Z M 9.34375 -10.828125 L 9.265625 -10.828125 C 9.265625 -10.929688 9.273438 -11.023438 9.296875 -11.109375 C 9.328125 -11.191406 9.34375 -11.257812 9.34375 -11.3125 C 9.34375 -11.519531 9.210938 -11.675781 8.953125 -11.78125 C 8.796875 -11.78125 8.675781 -11.710938 8.59375 -11.578125 C 8.519531 -11.453125 8.484375 -11.335938 8.484375 -11.234375 C 8.484375 -10.910156 8.613281 -10.75 8.875 -10.75 C 8.976562 -10.75 9.066406 -10.757812 9.140625 -10.78125 C 9.222656 -10.8125 9.289062 -10.828125 9.34375 -10.828125 Z M 9.65625 -17.515625 C 9.65625 -17.722656 9.628906 -18.125 9.578125 -18.71875 C 9.523438 -19.320312 9.472656 -19.910156 9.421875 -20.484375 C 9.367188 -21.066406 9.289062 -21.359375 9.1875 -21.359375 C 8.613281 -21.359375 8.328125 -21.039062 8.328125 -20.40625 C 8.328125 -20.195312 8.40625 -19.945312 8.5625 -19.65625 C 8.71875 -19.375 8.796875 -19.101562 8.796875 -18.84375 C 8.796875 -18.425781 8.71875 -17.96875 8.5625 -17.46875 C 8.40625 -16.96875 8.328125 -16.507812 8.328125 -16.09375 C 8.328125 -15.9375 8.429688 -15.539062 8.640625 -14.90625 C 8.847656 -14.28125 9.109375 -13.96875 9.421875 -13.96875 C 9.523438 -14.070312 9.585938 -14.304688 9.609375 -14.671875 C 9.640625 -15.046875 9.65625 -15.414062 9.65625 -15.78125 C 9.65625 -16.09375 9.65625 -16.40625 9.65625 -16.71875 C 9.65625 -17.03125 9.65625 -17.296875 9.65625 -17.515625 Z M 13.1875 -18.0625 C 13.1875 -18.21875 13.144531 -18.53125 13.0625 -19 C 12.988281 -19.46875 12.859375 -19.910156 12.671875 -20.328125 C 12.492188 -20.753906 12.25 -20.96875 11.9375 -20.96875 C 11.726562 -20.757812 11.625 -20.492188 11.625 -20.171875 C 11.625 -20.222656 11.625 -20.257812 11.625 -20.28125 C 11.625 -20.3125 11.625 -20.328125 11.625 -20.328125 C 11.675781 -20.328125 11.726562 -20.101562 11.78125 -19.65625 C 11.832031 -19.21875 11.945312 -18.765625 12.125 -18.296875 C 12.3125 -17.828125 12.535156 -17.515625 12.796875 -17.359375 C 12.953125 -17.359375 13.039062 -17.445312 13.0625 -17.625 C 13.09375 -17.8125 13.132812 -17.957031 13.1875 -18.0625 Z M 10.359375 -28.265625 C 10.515625 -28.421875 10.59375 -28.628906 10.59375 -28.890625 C 10.59375 -29.304688 10.578125 -29.523438 10.546875 -29.546875 C 10.523438 -29.578125 10.460938 -29.703125 10.359375 -29.921875 C 10.253906 -29.804688 10.1875 -29.65625 10.15625 -29.46875 C 10.132812 -29.289062 10.125 -29.125 10.125 -28.96875 C 10.125 -28.757812 10.203125 -28.523438 10.359375 -28.265625 Z M 8.796875 -32.5 C 8.691406 -32.601562 8.640625 -32.65625 8.640625 -32.65625 C 8.222656 -32.65625 8.015625 -32.601562 8.015625 -32.5 C 8.015625 -32.34375 8.117188 -32.265625 8.328125 -32.265625 C 8.429688 -32.316406 8.519531 -32.351562 8.59375 -32.375 C 8.675781 -32.40625 8.742188 -32.445312 8.796875 -32.5 Z M 9.421875 -28.34375 C 9.316406 -28.445312 9.265625 -28.5 9.265625 -28.5 C 9.109375 -28.5 9.03125 -28.445312 9.03125 -28.34375 C 9.03125 -28.132812 9.082031 -28.03125 9.1875 -28.03125 C 9.34375 -28.03125 9.421875 -28.132812 9.421875 -28.34375 Z M 9.1875 -8.875 L 9.265625 -8.640625 L 9.34375 -8.796875 Z M 12.171875 -8.40625 C 12.171875 -8.351562 12.15625 -8.3125 12.125 -8.28125 C 12.101562 -8.257812 12.09375 -8.25 12.09375 -8.25 C 12.09375 -8.09375 12.144531 -8.015625 12.25 -8.015625 C 12.25 -8.015625 12.257812 -8.023438 12.28125 -8.046875 C 12.3125 -8.078125 12.351562 -8.117188 12.40625 -8.171875 C 12.40625 -8.328125 12.328125 -8.40625 12.171875 -8.40625 Z M 11.15625 -5.734375 C 11.15625 -5.835938 11.070312 -5.890625 10.90625 -5.890625 C 10.90625 -5.835938 10.914062 -5.796875 10.9375 -5.765625 C 10.96875 -5.742188 10.984375 -5.707031 10.984375 -5.65625 C 11.046875 -5.65625 11.101562 -5.679688 11.15625 -5.734375 Z M 12.71875 -15.9375 L 12.796875 -15.703125 L 12.875 -15.859375 Z M 9.265625 -34.703125 L 9.1875 -34.46875 L 9.34375 -34.46875 Z M 9.265625 -34.703125 "/></g></g></g><g fill="#0ea5e9" fill-opacity="1"><g transform="translate(40.459383, 87.097694)"><g><path d="M 45.859375 -3.53125 C 45.378906 -3.6875 45.085938 -3.765625 44.984375 -3.765625 C 44.828125 -3.765625 44.515625 -3.566406 44.046875 -3.171875 C 43.578125 -2.785156 43.054688 -2.59375 42.484375 -2.59375 C 42.109375 -2.59375 41.738281 -2.695312 41.375 -2.90625 C 41.007812 -3.113281 40.566406 -3.21875 40.046875 -3.21875 C 39.359375 -3.21875 38.625 -3.0625 37.84375 -2.75 C 37.0625 -2.4375 36.300781 -2.28125 35.5625 -2.28125 C 35.457031 -2.28125 35.351562 -2.289062 35.25 -2.3125 C 35.144531 -2.34375 35.039062 -2.359375 34.9375 -2.359375 C 34.625 -2.148438 34.296875 -2.03125 33.953125 -2 C 33.617188 -1.976562 33.265625 -1.96875 32.890625 -1.96875 C 32.523438 -1.96875 31.804688 -1.78125 30.734375 -1.40625 C 29.660156 -1.039062 28.785156 -0.859375 28.109375 -0.859375 C 27.847656 -0.859375 27.648438 -0.972656 27.515625 -1.203125 C 27.390625 -1.441406 27.222656 -1.5625 27.015625 -1.5625 C 26.960938 -1.5625 26.910156 -1.546875 26.859375 -1.515625 C 26.804688 -1.492188 26.722656 -1.484375 26.609375 -1.484375 C 26.503906 -1.484375 26.375 -1.492188 26.21875 -1.515625 C 26.0625 -1.546875 25.90625 -1.5625 25.75 -1.5625 C 25.226562 -1.5625 24.675781 -1.351562 24.09375 -0.9375 C 23.519531 -0.519531 22.921875 -0.3125 22.296875 -0.3125 C 21.722656 -0.3125 21.1875 -0.179688 20.6875 0.078125 C 20.1875 0.335938 19.648438 0.46875 19.078125 0.46875 C 18.921875 0.46875 18.765625 0.441406 18.609375 0.390625 C 18.453125 0.335938 18.296875 0.3125 18.140625 0.3125 C 17.722656 0.3125 17.300781 0.503906 16.875 0.890625 C 16.457031 1.285156 15.9375 1.484375 15.3125 1.484375 C 15.15625 1.484375 14.984375 1.46875 14.796875 1.4375 C 14.617188 1.414062 14.425781 1.40625 14.21875 1.40625 C 14.050781 1.40625 13.640625 1.484375 12.984375 1.640625 C 12.335938 1.804688 11.582031 1.992188 10.71875 2.203125 C 9.851562 2.410156 9.039062 2.644531 8.28125 2.90625 C 7.519531 3.164062 7.007812 3.375 6.75 3.53125 C 6.125 3.894531 5.429688 4.128906 4.671875 4.234375 C 3.910156 4.335938 3.191406 4.46875 2.515625 4.625 C 2.148438 4.625 1.597656 4.546875 0.859375 4.390625 C 0.128906 4.234375 -0.363281 4.078125 -0.625 3.921875 C -0.625 3.921875 -0.898438 3.632812 -1.453125 3.0625 C -2.003906 2.488281 -2.550781 1.847656 -3.09375 1.140625 C -3.644531 0.429688 -3.921875 -0.0507812 -3.921875 -0.3125 C -3.921875 -0.832031 -3.394531 -1.25 -2.34375 -1.5625 C -1.300781 -1.882812 -0.414062 -2.226562 0.3125 -2.59375 C 1.46875 -3.113281 2.632812 -3.4375 3.8125 -3.5625 C 4.988281 -3.695312 6.140625 -3.867188 7.265625 -4.078125 C 8.390625 -4.285156 9.472656 -4.707031 10.515625 -5.34375 C 10.515625 -7.070312 10.59375 -9.019531 10.75 -11.1875 C 10.90625 -13.363281 11.117188 -15.5 11.390625 -17.59375 C 11.492188 -18.425781 11.710938 -19.335938 12.046875 -20.328125 C 12.390625 -21.328125 12.5625 -22.007812 12.5625 -22.375 C 12.5625 -22.632812 12.492188 -22.972656 12.359375 -23.390625 C 12.234375 -23.816406 12.171875 -24.265625 12.171875 -24.734375 C 12.171875 -25.253906 12.363281 -25.707031 12.75 -26.09375 C 13.144531 -26.488281 13.34375 -26.847656 13.34375 -27.171875 C 13.34375 -27.429688 13.265625 -27.691406 13.109375 -27.953125 C 12.953125 -28.210938 12.875 -28.472656 12.875 -28.734375 C 12.875 -29.148438 13.015625 -29.582031 13.296875 -30.03125 C 13.585938 -30.476562 13.921875 -30.910156 14.296875 -31.328125 C 14.078125 -31.742188 13.898438 -32.175781 13.765625 -32.625 C 13.640625 -33.070312 13.578125 -33.503906 13.578125 -33.921875 C 13.578125 -34.441406 13.628906 -34.953125 13.734375 -35.453125 C 13.835938 -35.953125 13.890625 -36.460938 13.890625 -36.984375 C 13.890625 -37.242188 13.847656 -37.503906 13.765625 -37.765625 C 13.691406 -38.023438 13.65625 -38.285156 13.65625 -38.546875 C 13.65625 -38.960938 13.8125 -39.34375 14.125 -39.6875 C 14.445312 -40.03125 14.609375 -40.4375 14.609375 -40.90625 C 14.609375 -42.84375 14.421875 -44.019531 14.046875 -44.4375 C 13.679688 -44.851562 12.898438 -45.085938 11.703125 -45.140625 C 9.503906 -45.296875 7.800781 -45.398438 6.59375 -45.453125 C 5.394531 -45.503906 4.453125 -45.726562 3.765625 -46.125 C 3.085938 -46.519531 2.382812 -47.238281 1.65625 -48.28125 C 1.65625 -48.332031 1.546875 -48.617188 1.328125 -49.140625 C 1.117188 -49.671875 0.921875 -50.234375 0.734375 -50.828125 C 0.554688 -51.429688 0.46875 -51.867188 0.46875 -52.140625 C 0.46875 -52.398438 0.53125 -52.6875 0.65625 -53 C 0.789062 -53.3125 1.039062 -53.46875 1.40625 -53.46875 C 2.40625 -53.46875 3.375 -53.425781 4.3125 -53.34375 C 5.257812 -53.269531 6.226562 -53.179688 7.21875 -53.078125 C 7.632812 -53.179688 7.976562 -53.234375 8.25 -53.234375 C 8.976562 -53.234375 9.679688 -53.128906 10.359375 -52.921875 C 11.046875 -52.710938 11.703125 -52.609375 12.328125 -52.609375 C 12.585938 -52.609375 12.859375 -52.660156 13.140625 -52.765625 C 13.429688 -52.867188 13.679688 -52.921875 13.890625 -52.921875 C 14.160156 -52.921875 14.453125 -52.867188 14.765625 -52.765625 C 15.078125 -52.660156 15.363281 -52.609375 15.625 -52.609375 C 16.195312 -52.609375 16.769531 -52.660156 17.34375 -52.765625 C 17.925781 -52.867188 18.476562 -52.921875 19 -52.921875 C 19.882812 -52.921875 20.785156 -52.851562 21.703125 -52.71875 C 22.617188 -52.59375 23.5 -52.53125 24.34375 -52.53125 C 24.757812 -52.53125 25.1875 -52.59375 25.625 -52.71875 C 26.070312 -52.851562 26.507812 -52.921875 26.9375 -52.921875 C 27.40625 -52.921875 27.859375 -52.800781 28.296875 -52.5625 C 28.742188 -52.332031 29.203125 -52.21875 29.671875 -52.21875 C 30.097656 -52.21875 30.492188 -52.242188 30.859375 -52.296875 C 31.222656 -52.347656 31.585938 -52.375 31.953125 -52.375 C 33.003906 -52.375 33.972656 -52.265625 34.859375 -52.046875 C 35.753906 -51.835938 36.644531 -51.734375 37.53125 -51.734375 C 37.632812 -51.734375 37.75 -51.742188 37.875 -51.765625 C 38.007812 -51.796875 38.15625 -51.8125 38.3125 -51.8125 C 40.144531 -51.8125 41.347656 -51.1875 41.921875 -49.9375 C 41.921875 -49.09375 41.660156 -48.265625 41.140625 -47.453125 C 40.617188 -46.648438 39.859375 -46.25 38.859375 -46.25 C 38.441406 -46.25 37.894531 -46.285156 37.21875 -46.359375 C 36.539062 -46.441406 36.039062 -46.484375 35.71875 -46.484375 C 35.507812 -46.484375 35.351562 -46.285156 35.25 -45.890625 C 35.144531 -45.492188 34.648438 -45.296875 33.765625 -45.296875 C 32.765625 -45.296875 31.820312 -45.40625 30.9375 -45.625 C 30.570312 -45.726562 30.296875 -45.945312 30.109375 -46.28125 C 29.921875 -46.625 29.75 -46.796875 29.59375 -46.796875 C 29.382812 -46.796875 28.847656 -46.492188 27.984375 -45.890625 C 27.117188 -45.285156 26.113281 -44.984375 24.96875 -44.984375 C 24.5 -44.984375 24.160156 -45.007812 23.953125 -45.0625 C 23.628906 -45.0625 23.46875 -44.75 23.46875 -44.125 C 23.46875 -42.8125 23.519531 -41.523438 23.625 -40.265625 C 23.738281 -39.015625 23.796875 -37.601562 23.796875 -36.03125 C 23.796875 -35.144531 23.738281 -34.296875 23.625 -33.484375 C 23.519531 -32.671875 23.3125 -32.03125 23 -31.5625 C 22.945312 -31.507812 22.816406 -31.0625 22.609375 -30.21875 C 22.398438 -29.382812 22.296875 -28.757812 22.296875 -28.34375 C 22.296875 -28.132812 22.375 -27.898438 22.53125 -27.640625 C 22.53125 -27.585938 22.503906 -27.519531 22.453125 -27.4375 C 22.398438 -27.363281 22.347656 -27.273438 22.296875 -27.171875 C 22.347656 -27.222656 22.148438 -27.007812 21.703125 -26.53125 C 21.265625 -26.0625 20.820312 -25.59375 20.375 -25.125 C 19.925781 -24.65625 19.703125 -24.445312 19.703125 -24.5 C 19.703125 -24.289062 19.816406 -24.078125 20.046875 -23.859375 C 20.285156 -23.648438 20.40625 -23.492188 20.40625 -23.390625 C 20.40625 -23.234375 20.273438 -23.007812 20.015625 -22.71875 C 19.753906 -22.4375 19.625 -22.113281 19.625 -21.75 C 19.625 -21.488281 19.738281 -21.082031 19.96875 -20.53125 C 20.207031 -19.976562 20.410156 -19.519531 20.578125 -19.15625 C 20.203125 -18.632812 19.882812 -18.097656 19.625 -17.546875 C 19.363281 -16.992188 19.179688 -16.378906 19.078125 -15.703125 C 19.023438 -15.285156 18.816406 -14.773438 18.453125 -14.171875 C 18.085938 -13.566406 17.90625 -13.210938 17.90625 -13.109375 C 17.90625 -12.273438 17.828125 -11.566406 17.671875 -10.984375 L 17.671875 -11.15625 C 18.191406 -10.882812 18.453125 -10.460938 18.453125 -9.890625 C 18.453125 -9.785156 18.4375 -9.65625 18.40625 -9.5 C 18.382812 -9.34375 18.375 -9.210938 18.375 -9.109375 C 18.375 -8.847656 18.515625 -8.691406 18.796875 -8.640625 C 19.085938 -8.585938 19.3125 -8.5625 19.46875 -8.5625 C 19.570312 -8.5625 19.703125 -8.570312 19.859375 -8.59375 C 20.015625 -8.625 20.144531 -8.640625 20.25 -8.640625 C 20.675781 -8.640625 21.046875 -8.519531 21.359375 -8.28125 C 21.671875 -8.050781 22.0625 -7.9375 22.53125 -7.9375 C 23.582031 -8.039062 24.644531 -8.144531 25.71875 -8.25 C 26.789062 -8.351562 27.820312 -8.535156 28.8125 -8.796875 C 30.59375 -9.210938 32.425781 -9.472656 34.3125 -9.578125 C 36.195312 -9.679688 38.054688 -9.785156 39.890625 -9.890625 C 40.566406 -9.890625 41.234375 -9.953125 41.890625 -10.078125 C 42.546875 -10.210938 43.1875 -10.28125 43.8125 -10.28125 C 44.070312 -10.28125 44.53125 -10.109375 45.1875 -9.765625 C 45.84375 -9.429688 46.222656 -8.976562 46.328125 -8.40625 C 46.328125 -8.195312 46.648438 -8.023438 47.296875 -7.890625 C 47.953125 -7.753906 48.28125 -7.503906 48.28125 -7.140625 C 48.28125 -6.773438 48.097656 -6.472656 47.734375 -6.234375 C 47.367188 -6.003906 47.003906 -5.8125 46.640625 -5.65625 C 46.273438 -5.5 46.09375 -5.34375 46.09375 -5.1875 C 46.09375 -4.8125 46.351562 -4.546875 46.875 -4.390625 C 47.394531 -4.234375 47.65625 -3.945312 47.65625 -3.53125 C 47.65625 -3.269531 47.550781 -3.097656 47.34375 -3.015625 C 47.132812 -2.941406 46.925781 -2.90625 46.71875 -2.90625 C 46.300781 -2.90625 45.988281 -3.085938 45.78125 -3.453125 C 45.78125 -3.453125 45.804688 -3.453125 45.859375 -3.453125 C 45.910156 -3.453125 45.9375 -3.453125 45.9375 -3.453125 C 45.9375 -3.503906 45.921875 -3.53125 45.890625 -3.53125 C 45.867188 -3.53125 45.859375 -3.53125 45.859375 -3.53125 Z M 34.46875 -46.171875 C 34.257812 -46.273438 34.0625 -46.378906 33.875 -46.484375 C 33.695312 -46.585938 33.53125 -46.640625 33.375 -46.640625 C 33.21875 -46.640625 33.140625 -46.507812 33.140625 -46.25 C 33.242188 -46.144531 33.320312 -46.09375 33.375 -46.09375 C 33.582031 -46.09375 33.773438 -46.101562 33.953125 -46.125 C 34.140625 -46.15625 34.3125 -46.171875 34.46875 -46.171875 C 34.46875 -46.222656 34.441406 -46.273438 34.390625 -46.328125 C 34.390625 -46.222656 34.414062 -46.171875 34.46875 -46.171875 Z M 18.765625 -24.109375 C 18.609375 -24.523438 18.476562 -24.734375 18.375 -24.734375 C 18.0625 -24.734375 17.90625 -24.601562 17.90625 -24.34375 C 17.90625 -24.1875 18.019531 -24.109375 18.25 -24.109375 C 18.488281 -24.109375 18.660156 -24.109375 18.765625 -24.109375 Z M 18.765625 -24.109375 "/></g></g></g><g fill="#0ea5e9" fill-opacity="1"><g transform="translate(84.816096, 87.097694)"><g><path d="M 24.109375 -10.90625 C 24.054688 -10.851562 24.03125 -10.773438 24.03125 -10.671875 C 24.03125 -10.566406 24.003906 -10.460938 23.953125 -10.359375 L 24.03125 -10.359375 C 23.925781 -10.359375 23.875 -10.28125 23.875 -10.125 C 23.875 -9.914062 23.953125 -9.679688 24.109375 -9.421875 C 24.265625 -9.160156 24.34375 -8.898438 24.34375 -8.640625 C 24.34375 -8.429688 24.300781 -8.242188 24.21875 -8.078125 C 24.144531 -7.921875 24.109375 -7.765625 24.109375 -7.609375 C 24.109375 -7.347656 24.1875 -7.070312 24.34375 -6.78125 C 24.5 -6.5 24.578125 -6.175781 24.578125 -5.8125 C 24.578125 -5.601562 24.742188 -5.171875 25.078125 -4.515625 C 25.421875 -3.859375 25.59375 -3.242188 25.59375 -2.671875 C 25.59375 -1.671875 25.171875 -1.023438 24.328125 -0.734375 C 23.492188 -0.453125 22.609375 -0.179688 21.671875 0.078125 C 21.304688 -0.335938 20.859375 -0.78125 20.328125 -1.25 C 19.804688 -1.726562 19.546875 -2.253906 19.546875 -2.828125 C 19.546875 -2.984375 19.597656 -3.21875 19.703125 -3.53125 C 19.597656 -4.15625 19.414062 -4.898438 19.15625 -5.765625 C 18.894531 -6.628906 18.765625 -7.378906 18.765625 -8.015625 C 18.765625 -8.222656 18.84375 -8.40625 19 -8.5625 C 18.945312 -8.507812 18.90625 -8.46875 18.875 -8.4375 C 18.851562 -8.414062 18.84375 -8.40625 18.84375 -8.40625 C 18.84375 -8.40625 18.828125 -8.414062 18.796875 -8.4375 C 18.773438 -8.46875 18.765625 -8.484375 18.765625 -8.484375 C 18.765625 -8.535156 18.773438 -8.5625 18.796875 -8.5625 C 18.828125 -8.5625 18.84375 -8.585938 18.84375 -8.640625 L 19 -8.40625 C 18.113281 -9.394531 17.65625 -10.710938 17.625 -12.359375 C 17.601562 -14.015625 17.539062 -15.546875 17.4375 -16.953125 C 17.4375 -17.535156 17.488281 -18.085938 17.59375 -18.609375 C 17.695312 -19.128906 17.75 -19.648438 17.75 -20.171875 C 17.75 -20.546875 17.707031 -20.941406 17.625 -21.359375 C 17.550781 -21.773438 17.515625 -22.191406 17.515625 -22.609375 C 17.515625 -23.816406 17.578125 -24.691406 17.703125 -25.234375 C 17.835938 -25.785156 18.085938 -26.457031 18.453125 -27.25 C 18.453125 -27.613281 18.28125 -28.003906 17.9375 -28.421875 C 17.601562 -28.835938 17.4375 -29.28125 17.4375 -29.75 C 17.4375 -30.695312 17.515625 -31.664062 17.671875 -32.65625 C 17.828125 -33.65625 17.90625 -34.648438 17.90625 -35.640625 C 17.90625 -35.898438 17.890625 -36.148438 17.859375 -36.390625 C 17.835938 -36.628906 17.828125 -36.851562 17.828125 -37.0625 C 17.828125 -37.476562 17.96875 -37.90625 18.25 -38.34375 C 18.539062 -38.789062 18.6875 -39.226562 18.6875 -39.65625 C 18.6875 -40.070312 18.59375 -40.472656 18.40625 -40.859375 C 18.226562 -41.253906 18.140625 -41.632812 18.140625 -42 C 18.140625 -42.320312 18.203125 -42.613281 18.328125 -42.875 C 18.460938 -43.132812 18.53125 -43.421875 18.53125 -43.734375 C 18.53125 -44.773438 18.382812 -45.46875 18.09375 -45.8125 C 17.8125 -46.15625 17.59375 -46.328125 17.4375 -46.328125 C 16.539062 -46.328125 15.476562 -46.113281 14.25 -45.6875 C 13.019531 -45.269531 11.738281 -44.851562 10.40625 -44.4375 C 9.070312 -44.019531 7.800781 -43.8125 6.59375 -43.8125 C 5.757812 -43.8125 4.972656 -43.898438 4.234375 -44.078125 C 3.503906 -44.265625 2.773438 -44.539062 2.046875 -44.90625 C 1.992188 -44.957031 1.664062 -45.164062 1.0625 -45.53125 C 0.457031 -45.90625 -0.128906 -46.40625 -0.703125 -47.03125 C -1.273438 -47.65625 -1.5625 -48.390625 -1.5625 -49.234375 C -1.5625 -49.597656 -1.390625 -49.9375 -1.046875 -50.25 C -0.710938 -50.5625 -0.335938 -50.71875 0.078125 -50.71875 C 0.492188 -50.71875 0.925781 -50.640625 1.375 -50.484375 C 1.820312 -50.328125 2.226562 -50.25 2.59375 -50.25 C 3.113281 -50.25 3.609375 -50.285156 4.078125 -50.359375 C 4.554688 -50.441406 5.054688 -50.535156 5.578125 -50.640625 C 5.835938 -50.691406 6.410156 -50.804688 7.296875 -50.984375 C 8.191406 -51.171875 9.253906 -51.410156 10.484375 -51.703125 C 11.710938 -51.992188 12.898438 -52.28125 14.046875 -52.5625 C 15.203125 -52.851562 16.171875 -53.140625 16.953125 -53.421875 C 17.742188 -53.710938 18.140625 -53.960938 18.140625 -54.171875 C 18.140625 -54.328125 18.113281 -54.46875 18.0625 -54.59375 C 18.007812 -54.726562 17.984375 -54.90625 17.984375 -55.125 C 17.984375 -55.488281 18.332031 -55.757812 19.03125 -55.9375 C 19.738281 -56.125 20.304688 -56.21875 20.734375 -56.21875 C 21.410156 -56.21875 22.046875 -56.0625 22.640625 -55.75 C 23.242188 -55.4375 23.890625 -55.28125 24.578125 -55.28125 C 25.046875 -55.28125 25.5 -55.34375 25.9375 -55.46875 C 26.382812 -55.601562 26.820312 -55.695312 27.25 -55.75 C 29.550781 -56.007812 31.8125 -56.398438 34.03125 -56.921875 C 36.257812 -57.441406 38.550781 -57.703125 40.90625 -57.703125 C 41.269531 -57.703125 41.9375 -57.660156 42.90625 -57.578125 C 43.875 -57.503906 44.773438 -57.296875 45.609375 -56.953125 C 46.453125 -56.617188 46.875 -56.035156 46.875 -55.203125 C 46.875 -54.359375 46.46875 -53.703125 45.65625 -53.234375 C 44.84375 -52.765625 43.847656 -52.4375 42.671875 -52.25 C 41.492188 -52.070312 40.316406 -51.925781 39.140625 -51.8125 C 37.960938 -51.707031 37.007812 -51.578125 36.28125 -51.421875 C 35.90625 -51.421875 35.640625 -51.300781 35.484375 -51.0625 C 35.328125 -50.832031 35.117188 -50.71875 34.859375 -50.71875 C 34.648438 -50.71875 34.453125 -50.769531 34.265625 -50.875 C 34.085938 -50.976562 33.894531 -51.054688 33.6875 -51.109375 C 33 -50.585938 32.09375 -50.15625 30.96875 -49.8125 C 29.84375 -49.476562 28.785156 -49.207031 27.796875 -49 C 27.328125 -48.894531 26.945312 -48.394531 26.65625 -47.5 C 26.363281 -46.613281 26.140625 -45.523438 25.984375 -44.234375 C 25.828125 -42.953125 25.707031 -41.695312 25.625 -40.46875 C 25.550781 -39.238281 25.515625 -38.234375 25.515625 -37.453125 C 25.515625 -37.191406 25.539062 -36.941406 25.59375 -36.703125 C 25.644531 -36.472656 25.671875 -36.222656 25.671875 -35.953125 C 25.671875 -34.859375 25.617188 -33.75 25.515625 -32.625 C 25.410156 -31.5 25.359375 -30.359375 25.359375 -29.203125 C 25.359375 -28.523438 25.382812 -27.816406 25.4375 -27.078125 C 25.488281 -26.347656 25.515625 -25.617188 25.515625 -24.890625 C 25.304688 -23.734375 25.226562 -22.59375 25.28125 -21.46875 C 25.332031 -20.34375 25.28125 -19.234375 25.125 -18.140625 C 25.019531 -17.296875 24.796875 -16.363281 24.453125 -15.34375 C 24.117188 -14.320312 23.953125 -13.421875 23.953125 -12.640625 C 23.953125 -12.429688 24.003906 -12.234375 24.109375 -12.046875 C 24.210938 -11.867188 24.265625 -11.703125 24.265625 -11.546875 C 24.265625 -11.441406 24.238281 -11.320312 24.1875 -11.1875 C 24.132812 -11.050781 24.082031 -10.929688 24.03125 -10.828125 C 24.03125 -10.828125 24.039062 -10.835938 24.0625 -10.859375 C 24.09375 -10.890625 24.109375 -10.90625 24.109375 -10.90625 Z M 23.953125 -10.359375 C 24.003906 -10.203125 24.03125 -9.96875 24.03125 -9.65625 C 24.03125 -9.96875 24.003906 -10.203125 23.953125 -10.359375 Z M 24.109375 -10.90625 C 24.109375 -10.90625 24.09375 -10.890625 24.0625 -10.859375 C 24.039062 -10.835938 24.03125 -10.828125 24.03125 -10.828125 C 24.03125 -10.828125 24.039062 -10.835938 24.0625 -10.859375 C 24.09375 -10.890625 24.109375 -10.90625 24.109375 -10.90625 Z M 24.109375 -10.90625 "/></g></g></g><g fill="#0ea5e9" fill-opacity="1"><g transform="translate(127.759675, 87.097694)"><g><path d="M 23.546875 -4 C 23.335938 -3.425781 22.929688 -2.734375 22.328125 -1.921875 C 21.734375 -1.109375 21.039062 -0.414062 20.25 0.15625 C 19.46875 0.726562 18.660156 1.015625 17.828125 1.015625 C 17.773438 1.015625 17.734375 1 17.703125 0.96875 C 17.679688 0.945312 17.671875 0.9375 17.671875 0.9375 C 17.191406 0.9375 16.804688 1.023438 16.515625 1.203125 C 16.234375 1.390625 15.882812 1.539062 15.46875 1.65625 C 14.738281 1.070312 13.953125 0.78125 13.109375 0.78125 C 12.953125 0.78125 12.796875 0.789062 12.640625 0.8125 C 12.484375 0.84375 12.328125 0.859375 12.171875 0.859375 C 11.328125 0.859375 10.863281 0.738281 10.78125 0.5 C 10.707031 0.269531 10.617188 -0.078125 10.515625 -0.546875 C 10.460938 -0.753906 10.109375 -1.132812 9.453125 -1.6875 C 8.804688 -2.238281 8.15625 -2.851562 7.5 -3.53125 C 6.84375 -4.207031 6.515625 -4.8125 6.515625 -5.34375 C 6.515625 -6.175781 6.332031 -6.984375 5.96875 -7.765625 C 5.601562 -8.554688 5.421875 -9.34375 5.421875 -10.125 C 5.421875 -10.4375 5.5 -10.765625 5.65625 -11.109375 C 5.8125 -11.453125 5.890625 -11.804688 5.890625 -12.171875 C 5.890625 -12.640625 5.734375 -13.015625 5.421875 -13.296875 C 5.109375 -13.585938 4.953125 -13.921875 4.953125 -14.296875 C 4.953125 -14.453125 4.988281 -14.609375 5.0625 -14.765625 C 5.144531 -14.921875 5.1875 -15.101562 5.1875 -15.3125 C 5.1875 -15.519531 5.101562 -15.726562 4.9375 -15.9375 C 4.78125 -16.144531 4.703125 -16.378906 4.703125 -16.640625 C 4.703125 -16.898438 4.753906 -17.125 4.859375 -17.3125 C 4.972656 -17.5 5.03125 -17.695312 5.03125 -17.90625 C 5.03125 -18.269531 4.972656 -18.671875 4.859375 -19.109375 C 4.753906 -19.554688 4.703125 -20.019531 4.703125 -20.5 C 4.703125 -20.757812 4.71875 -21.03125 4.75 -21.3125 C 4.78125 -21.601562 4.796875 -21.878906 4.796875 -22.140625 C 4.796875 -22.398438 4.78125 -22.671875 4.75 -22.953125 C 4.71875 -23.242188 4.703125 -23.550781 4.703125 -23.875 C 4.703125 -24.5 4.832031 -25.003906 5.09375 -25.390625 C 5.363281 -25.785156 5.628906 -26.320312 5.890625 -27 C 6.148438 -27.6875 6.28125 -28.765625 6.28125 -30.234375 C 6.28125 -30.648438 6.382812 -31.050781 6.59375 -31.4375 C 6.800781 -31.832031 6.90625 -32.210938 6.90625 -32.578125 C 6.90625 -33.523438 7.078125 -34.335938 7.421875 -35.015625 C 7.765625 -35.691406 7.9375 -36.425781 7.9375 -37.21875 C 7.9375 -37.632812 7.878906 -38.023438 7.765625 -38.390625 C 7.660156 -38.753906 7.609375 -39.175781 7.609375 -39.65625 C 7.609375 -40.070312 7.738281 -40.421875 8 -40.703125 C 8.269531 -40.992188 8.40625 -41.242188 8.40625 -41.453125 C 8.351562 -41.554688 8.328125 -41.710938 8.328125 -41.921875 C 8.328125 -42.453125 8.5625 -42.882812 9.03125 -43.21875 C 9.5 -43.5625 9.984375 -44.003906 10.484375 -44.546875 C 10.984375 -45.097656 11.234375 -45.925781 11.234375 -47.03125 C 11.234375 -46.976562 11.363281 -47.332031 11.625 -48.09375 C 11.882812 -48.851562 12.3125 -49.753906 12.90625 -50.796875 C 13.507812 -51.847656 14.3125 -52.710938 15.3125 -53.390625 C 15.414062 -53.492188 15.597656 -53.882812 15.859375 -54.5625 C 16.117188 -55.25 16.457031 -56.023438 16.875 -56.890625 C 17.300781 -57.753906 17.8125 -58.507812 18.40625 -59.15625 C 19.007812 -59.8125 19.734375 -60.140625 20.578125 -60.140625 C 21.410156 -60.085938 22.234375 -60.019531 23.046875 -59.9375 C 23.859375 -59.863281 24.65625 -59.59375 25.4375 -59.125 C 26.113281 -58.757812 26.832031 -58.535156 27.59375 -58.453125 C 28.351562 -58.378906 29.007812 -58.222656 29.5625 -57.984375 C 30.113281 -57.742188 30.390625 -57.207031 30.390625 -56.375 C 30.390625 -55.375 30.203125 -54.363281 29.828125 -53.34375 C 29.460938 -52.320312 29.097656 -51.289062 28.734375 -50.25 C 28.734375 -49.882812 28.640625 -49.28125 28.453125 -48.4375 C 28.273438 -47.601562 28.015625 -46.816406 27.671875 -46.078125 C 27.335938 -45.347656 26.929688 -44.929688 26.453125 -44.828125 C 25.984375 -44.828125 25.644531 -45.140625 25.4375 -45.765625 C 25.226562 -46.398438 25.097656 -47.132812 25.046875 -47.96875 C 24.992188 -48.8125 24.96875 -49.546875 24.96875 -50.171875 C 24.96875 -50.585938 24.992188 -50.9375 25.046875 -51.21875 C 25.097656 -51.507812 25.125 -51.84375 25.125 -52.21875 C 25.125 -52.375 25.097656 -52.59375 25.046875 -52.875 C 24.992188 -53.164062 24.835938 -53.3125 24.578125 -53.3125 C 23.785156 -53.3125 23 -52.878906 22.21875 -52.015625 C 21.4375 -51.148438 20.742188 -50.191406 20.140625 -49.140625 C 19.535156 -48.097656 19.023438 -47.238281 18.609375 -46.5625 C 18.660156 -46.457031 18.6875 -46.328125 18.6875 -46.171875 C 18.6875 -45.859375 18.4375 -45.359375 17.9375 -44.671875 C 17.4375 -43.992188 17.03125 -43.367188 16.71875 -42.796875 C 16.5625 -42.523438 16.285156 -42.128906 15.890625 -41.609375 C 15.503906 -41.085938 15.15625 -40.617188 14.84375 -40.203125 C 14.53125 -39.785156 14.375 -39.550781 14.375 -39.5 C 14.375 -39.394531 14.410156 -39.257812 14.484375 -39.09375 C 14.566406 -38.9375 14.609375 -38.804688 14.609375 -38.703125 C 14.609375 -38.703125 14.445312 -38.335938 14.125 -37.609375 C 13.8125 -36.878906 13.507812 -35.953125 13.21875 -34.828125 C 12.9375 -33.703125 12.796875 -32.535156 12.796875 -31.328125 C 12.796875 -29.390625 12.585938 -27.632812 12.171875 -26.0625 C 11.753906 -24.5 11.546875 -23.007812 11.546875 -21.59375 C 11.546875 -21.28125 11.554688 -20.976562 11.578125 -20.6875 C 11.609375 -20.394531 11.625 -20.09375 11.625 -19.78125 C 11.625 -19.519531 11.597656 -19.257812 11.546875 -19 C 11.492188 -18.738281 11.46875 -18.476562 11.46875 -18.21875 C 11.46875 -16.851562 11.609375 -15.476562 11.890625 -14.09375 C 12.179688 -12.707031 12.378906 -11.332031 12.484375 -9.96875 C 12.535156 -9.289062 12.726562 -8.53125 13.0625 -7.6875 C 13.40625 -6.851562 13.914062 -6.132812 14.59375 -5.53125 C 15.28125 -4.925781 16.117188 -4.625 17.109375 -4.625 C 17.429688 -4.625 17.75 -4.664062 18.0625 -4.75 C 18.375 -4.832031 18.660156 -4.976562 18.921875 -5.1875 C 19.335938 -5.5 19.910156 -5.890625 20.640625 -6.359375 C 21.378906 -6.828125 22.046875 -7.242188 22.640625 -7.609375 C 23.242188 -7.984375 23.546875 -8.171875 23.546875 -8.171875 C 23.546875 -8.273438 23.519531 -8.40625 23.46875 -8.5625 C 23.414062 -8.71875 23.390625 -8.875 23.390625 -9.03125 C 23.390625 -9.289062 23.550781 -9.578125 23.875 -9.890625 C 24.394531 -10.203125 24.914062 -10.75 25.4375 -11.53125 C 25.957031 -12.320312 26.441406 -13.070312 26.890625 -13.78125 C 27.335938 -14.488281 27.664062 -14.84375 27.875 -14.84375 C 28.082031 -14.84375 28.273438 -14.722656 28.453125 -14.484375 C 28.640625 -14.242188 28.8125 -14.019531 28.96875 -13.8125 L 28.96875 -13.890625 C 28.8125 -13.628906 28.664062 -13.367188 28.53125 -13.109375 C 28.40625 -12.847656 28.34375 -12.5625 28.34375 -12.25 C 28.34375 -10.726562 27.882812 -9.179688 26.96875 -7.609375 C 26.050781 -6.046875 24.882812 -4.816406 23.46875 -3.921875 C 23.46875 -4.023438 23.46875 -4.128906 23.46875 -4.234375 C 23.46875 -4.335938 23.390625 -4.390625 23.234375 -4.390625 C 23.234375 -4.390625 23.21875 -4.363281 23.1875 -4.3125 C 23.164062 -4.257812 23.15625 -4.234375 23.15625 -4.234375 C 23.363281 -4.128906 23.492188 -4.050781 23.546875 -4 Z M 11.703125 -30.15625 C 11.703125 -30.257812 11.625 -30.3125 11.46875 -30.3125 C 11.46875 -30.207031 11.546875 -30.15625 11.703125 -30.15625 Z M 24.578125 -5.65625 C 24.578125 -5.8125 24.523438 -5.890625 24.421875 -5.890625 C 24.367188 -5.890625 24.316406 -5.863281 24.265625 -5.8125 C 24.265625 -5.8125 24.273438 -5.785156 24.296875 -5.734375 C 24.328125 -5.679688 24.34375 -5.628906 24.34375 -5.578125 C 24.394531 -5.578125 24.429688 -5.585938 24.453125 -5.609375 C 24.484375 -5.640625 24.523438 -5.65625 24.578125 -5.65625 Z M 40.203125 -29.671875 C 40.203125 -29.304688 40.109375 -28.976562 39.921875 -28.6875 C 39.742188 -28.40625 39.46875 -28.238281 39.09375 -28.1875 C 38.625 -28.132812 38.347656 -27.9375 38.265625 -27.59375 C 38.191406 -27.257812 38.128906 -26.867188 38.078125 -26.421875 C 38.023438 -25.972656 37.851562 -25.578125 37.5625 -25.234375 C 37.28125 -24.898438 36.742188 -24.734375 35.953125 -24.734375 C 35.429688 -24.734375 35.171875 -24.941406 35.171875 -25.359375 C 35.171875 -25.410156 35.179688 -25.4375 35.203125 -25.4375 C 35.234375 -25.4375 35.25 -25.460938 35.25 -25.515625 C 35.769531 -26.085938 36.148438 -26.738281 36.390625 -27.46875 C 36.628906 -28.207031 36.941406 -28.890625 37.328125 -29.515625 C 37.722656 -30.148438 38.394531 -30.546875 39.34375 -30.703125 C 39.914062 -30.703125 40.203125 -30.359375 40.203125 -29.671875 Z M 28.96875 -13.8125 C 28.8125 -14.289062 28.734375 -14.738281 28.734375 -15.15625 C 28.734375 -15.675781 28.890625 -16.300781 29.203125 -17.03125 C 29.515625 -17.769531 29.859375 -18.140625 30.234375 -18.140625 C 30.441406 -18.140625 30.609375 -17.65625 30.734375 -16.6875 C 30.867188 -15.71875 30.9375 -14.945312 30.9375 -14.375 C 30.9375 -14.207031 30.894531 -13.925781 30.8125 -13.53125 C 30.738281 -13.144531 30.597656 -12.953125 30.390625 -12.953125 C 30.234375 -12.953125 30.140625 -13.203125 30.109375 -13.703125 C 30.085938 -14.203125 29.941406 -14.660156 29.671875 -15.078125 C 29.515625 -14.710938 29.367188 -14.476562 29.234375 -14.375 C 29.109375 -14.269531 29.019531 -14.082031 28.96875 -13.8125 Z M 31.953125 -16.640625 C 31.484375 -17.222656 31.25 -17.851562 31.25 -18.53125 C 31.25 -19.726562 31.691406 -20.695312 32.578125 -21.4375 C 32.785156 -21.070312 32.890625 -20.675781 32.890625 -20.25 C 32.890625 -19.675781 32.8125 -19.3125 32.65625 -19.15625 C 32.5 -19 32.34375 -18.921875 32.1875 -18.921875 C 32.03125 -18.921875 31.953125 -18.789062 31.953125 -18.53125 C 32.003906 -18.320312 32.066406 -18.085938 32.140625 -17.828125 C 32.222656 -17.566406 32.265625 -17.300781 32.265625 -17.03125 C 32.265625 -16.976562 32.160156 -16.847656 31.953125 -16.640625 Z M 35.25 -20.8125 C 35.25 -20.863281 35.25 -20.890625 35.25 -20.890625 C 35.25 -20.835938 35.222656 -20.613281 35.171875 -20.21875 C 35.117188 -19.820312 34.882812 -19.625 34.46875 -19.625 C 34.363281 -19.625 34.242188 -19.710938 34.109375 -19.890625 C 33.984375 -20.078125 33.921875 -20.25 33.921875 -20.40625 C 33.972656 -20.78125 34.078125 -21.238281 34.234375 -21.78125 C 34.390625 -22.332031 34.625 -22.609375 34.9375 -22.609375 C 35.09375 -22.609375 35.179688 -22.539062 35.203125 -22.40625 C 35.234375 -22.28125 35.25 -21.75 35.25 -20.8125 Z M 35.25 -20.8125 "/></g></g></g><g fill="#0ea5e9" fill-opacity="1"><g transform="translate(160.104745, 87.097694)"><g><path d="M 39.890625 -40.28125 C 39.253906 -39.539062 38.859375 -38.832031 38.703125 -38.15625 C 38.546875 -37.476562 38.46875 -36.691406 38.46875 -35.796875 C 38.46875 -34.910156 38.785156 -34.46875 39.421875 -34.46875 C 40.304688 -34.46875 40.878906 -34.6875 41.140625 -35.125 C 41.398438 -35.570312 41.660156 -35.796875 41.921875 -35.796875 C 42.234375 -35.796875 42.457031 -35.585938 42.59375 -35.171875 C 42.726562 -34.753906 42.796875 -34.46875 42.796875 -34.3125 C 42.796875 -33.6875 42.453125 -32.863281 41.765625 -31.84375 C 41.085938 -30.820312 40.359375 -30.070312 39.578125 -29.59375 C 38.367188 -28.863281 37.609375 -27.910156 37.296875 -26.734375 C 36.984375 -25.554688 36.695312 -24.3125 36.4375 -23 C 36.0625 -23.632812 35.847656 -23.953125 35.796875 -23.953125 C 35.222656 -23.953125 34.84375 -23.765625 34.65625 -23.390625 C 34.476562 -23.023438 34.390625 -22.554688 34.390625 -21.984375 C 34.390625 -21.515625 34.414062 -21.003906 34.46875 -20.453125 C 34.519531 -19.898438 34.546875 -19.335938 34.546875 -18.765625 C 34.546875 -18.140625 34.492188 -17.523438 34.390625 -16.921875 C 34.285156 -16.316406 34.050781 -15.753906 33.6875 -15.234375 C 33.582031 -15.128906 33.53125 -14.972656 33.53125 -14.765625 C 33.53125 -14.710938 33.539062 -14.632812 33.5625 -14.53125 C 33.59375 -14.425781 33.609375 -14.320312 33.609375 -14.21875 C 33.609375 -13.6875 33.472656 -13.273438 33.203125 -12.984375 C 32.941406 -12.703125 32.8125 -12.273438 32.8125 -11.703125 C 32.914062 -11.648438 33.070312 -11.582031 33.28125 -11.5 C 33.5 -11.425781 33.609375 -11.203125 33.609375 -10.828125 C 33.609375 -10.515625 33.4375 -10.148438 33.09375 -9.734375 C 32.75 -9.316406 32.578125 -8.898438 32.578125 -8.484375 C 32.578125 -8.054688 32.757812 -7.453125 33.125 -6.671875 C 33.5 -5.890625 33.6875 -5.128906 33.6875 -4.390625 C 33.6875 -4.234375 33.550781 -3.789062 33.28125 -3.0625 C 33.019531 -2.332031 32.679688 -1.546875 32.265625 -0.703125 C 31.847656 0.128906 31.390625 0.859375 30.890625 1.484375 C 30.398438 2.117188 29.914062 2.4375 29.4375 2.4375 C 29.070312 2.4375 28.71875 2.222656 28.375 1.796875 C 28.039062 1.378906 27.847656 0.960938 27.796875 0.546875 C 27.691406 -1.441406 27.46875 -3.285156 27.125 -4.984375 C 26.78125 -6.679688 26.609375 -8.5 26.609375 -10.4375 C 26.609375 -10.75 26.726562 -11.113281 26.96875 -11.53125 C 27.207031 -11.957031 27.40625 -12.429688 27.5625 -12.953125 C 27.71875 -12.742188 27.847656 -12.546875 27.953125 -12.359375 C 28.054688 -12.179688 28.160156 -12.015625 28.265625 -11.859375 C 28.472656 -12.015625 28.71875 -12.171875 29 -12.328125 C 29.289062 -12.484375 29.4375 -12.691406 29.4375 -12.953125 C 29.4375 -13.160156 29.210938 -13.523438 28.765625 -14.046875 C 28.328125 -14.578125 27.867188 -15.15625 27.390625 -15.78125 C 26.921875 -16.40625 26.6875 -16.929688 26.6875 -17.359375 C 26.6875 -18.035156 26.804688 -18.644531 27.046875 -19.1875 C 27.285156 -19.738281 27.40625 -20.28125 27.40625 -20.8125 C 27.40625 -21.019531 27.351562 -21.28125 27.25 -21.59375 C 27.09375 -21.957031 26.929688 -22.503906 26.765625 -23.234375 C 26.609375 -23.972656 26.4375 -24.65625 26.25 -25.28125 C 26.070312 -25.90625 25.828125 -26.21875 25.515625 -26.21875 C 24.835938 -26.21875 23.832031 -25.941406 22.5 -25.390625 C 21.164062 -24.847656 19.816406 -24.300781 18.453125 -23.75 C 17.085938 -23.195312 15.988281 -22.921875 15.15625 -22.921875 C 14.46875 -22.921875 13.847656 -22.6875 13.296875 -22.21875 C 12.753906 -21.75 12.3125 -21.265625 11.96875 -20.765625 C 11.632812 -20.265625 11.363281 -20.015625 11.15625 -20.015625 C 11.101562 -20.015625 11.007812 -20.144531 10.875 -20.40625 C 10.738281 -20.675781 10.617188 -20.8125 10.515625 -20.8125 C 10.304688 -20.8125 10.160156 -20.691406 10.078125 -20.453125 C 10.003906 -20.210938 9.96875 -19.960938 9.96875 -19.703125 C 9.96875 -19.648438 9.976562 -19.570312 10 -19.46875 C 10.03125 -19.363281 10.046875 -19.257812 10.046875 -19.15625 C 10.046875 -18.945312 9.992188 -18.84375 9.890625 -18.84375 C 9.679688 -18.84375 9.550781 -18.972656 9.5 -19.234375 C 9.445312 -19.492188 9.34375 -19.753906 9.1875 -20.015625 C 9.03125 -20.273438 8.664062 -20.40625 8.09375 -20.40625 C 7.988281 -20.40625 7.9375 -20.328125 7.9375 -20.171875 C 7.9375 -20.117188 7.960938 -20.039062 8.015625 -19.9375 C 8.066406 -19.832031 8.09375 -19.78125 8.09375 -19.78125 C 8.351562 -19.882812 8.585938 -19.972656 8.796875 -20.046875 C 9.003906 -20.128906 9.210938 -20.195312 9.421875 -20.25 C 9.210938 -19.882812 8.976562 -19.53125 8.71875 -19.1875 C 8.457031 -18.851562 8.195312 -18.476562 7.9375 -18.0625 C 7.988281 -17.476562 8.023438 -16.882812 8.046875 -16.28125 C 8.078125 -15.6875 8.09375 -15.101562 8.09375 -14.53125 C 8.195312 -14.15625 8.414062 -13.914062 8.75 -13.8125 C 9.09375 -13.707031 9.265625 -13.472656 9.265625 -13.109375 C 9.265625 -12.847656 9.117188 -12.570312 8.828125 -12.28125 C 8.546875 -12 8.40625 -11.675781 8.40625 -11.3125 C 8.40625 -9.945312 8.492188 -9.015625 8.671875 -8.515625 C 8.859375 -8.015625 9.039062 -7.671875 9.21875 -7.484375 C 9.40625 -7.304688 9.5 -6.929688 9.5 -6.359375 C 9.550781 -6.359375 9.550781 -6.039062 9.5 -5.40625 C 9.445312 -4.78125 9.578125 -4.46875 9.890625 -4.46875 C 10.304688 -4.46875 10.566406 -4.625 10.671875 -4.9375 C 10.773438 -5.257812 10.9375 -5.550781 11.15625 -5.8125 C 11.257812 -4.8125 11.414062 -3.835938 11.625 -2.890625 C 11.832031 -1.953125 11.9375 -0.988281 11.9375 0 C 11.9375 0.675781 12.050781 1.300781 12.28125 1.875 C 12.519531 2.457031 12.640625 3.035156 12.640625 3.609375 C 12.640625 4.179688 12.492188 4.898438 12.203125 5.765625 C 11.921875 6.628906 11.554688 7.375 11.109375 8 C 10.660156 8.632812 10.203125 8.953125 9.734375 8.953125 C 9.367188 8.953125 8.804688 8.632812 8.046875 8 C 7.285156 7.375 6.90625 6.75 6.90625 6.125 C 6.90625 6.019531 6.914062 5.925781 6.9375 5.84375 C 6.96875 5.769531 6.984375 5.707031 6.984375 5.65625 C 6.984375 4.757812 6.800781 3.929688 6.4375 3.171875 C 6.070312 2.421875 5.890625 1.597656 5.890625 0.703125 C 5.890625 -0.128906 5.757812 -0.882812 5.5 -1.5625 C 5.238281 -2.25 5.109375 -2.957031 5.109375 -3.6875 C 5.109375 -3.84375 5.117188 -4 5.140625 -4.15625 C 5.171875 -4.3125 5.210938 -4.492188 5.265625 -4.703125 C 5.210938 -5.753906 5.132812 -6.800781 5.03125 -7.84375 C 4.925781 -8.894531 4.875 -9.914062 4.875 -10.90625 C 4.875 -11.175781 4.882812 -11.425781 4.90625 -11.65625 C 4.9375 -11.894531 4.953125 -12.144531 4.953125 -12.40625 C 4.953125 -12.769531 4.925781 -13.117188 4.875 -13.453125 C 4.820312 -13.796875 4.796875 -14.15625 4.796875 -14.53125 C 4.796875 -15.050781 4.832031 -15.570312 4.90625 -16.09375 C 4.988281 -16.613281 5.03125 -17.140625 5.03125 -17.671875 C 5.03125 -18.660156 4.972656 -19.675781 4.859375 -20.71875 C 4.753906 -21.769531 4.703125 -22.742188 4.703125 -23.640625 C 4.703125 -24.523438 4.992188 -25.28125 5.578125 -25.90625 C 5.785156 -26.164062 5.925781 -26.660156 6 -27.390625 C 6.082031 -28.128906 6.160156 -28.914062 6.234375 -29.75 C 6.316406 -30.59375 6.460938 -31.300781 6.671875 -31.875 C 6.773438 -32.1875 6.851562 -32.566406 6.90625 -33.015625 C 6.957031 -33.460938 6.984375 -33.945312 6.984375 -34.46875 C 6.984375 -34.882812 6.96875 -35.316406 6.9375 -35.765625 C 6.914062 -36.210938 6.90625 -36.671875 6.90625 -37.140625 C 6.90625 -38.128906 6.96875 -39.109375 7.09375 -40.078125 C 7.226562 -41.046875 7.5625 -41.875 8.09375 -42.5625 C 8.195312 -42.664062 8.25 -42.820312 8.25 -43.03125 C 8.25 -43.34375 8.0625 -43.613281 7.6875 -43.84375 C 7.320312 -44.082031 7.140625 -44.460938 7.140625 -44.984375 C 7.140625 -45.515625 7.175781 -46.015625 7.25 -46.484375 C 7.332031 -46.953125 7.375 -47.445312 7.375 -47.96875 C 7.375 -48.332031 7.347656 -48.671875 7.296875 -48.984375 C 7.242188 -49.304688 7.21875 -49.648438 7.21875 -50.015625 C 7.21875 -50.117188 7.226562 -50.179688 7.25 -50.203125 C 7.28125 -50.234375 7.296875 -50.273438 7.296875 -50.328125 C 7.554688 -51.160156 7.695312 -51.992188 7.71875 -52.828125 C 7.75 -53.671875 7.820312 -54.515625 7.9375 -55.359375 C 8.507812 -55.617188 9.34375 -55.863281 10.4375 -56.09375 C 11.539062 -56.332031 12.507812 -56.453125 13.34375 -56.453125 C 14.03125 -56.453125 14.460938 -56.109375 14.640625 -55.421875 C 14.828125 -54.742188 14.921875 -53.988281 14.921875 -53.15625 C 14.921875 -52.257812 14.894531 -51.445312 14.84375 -50.71875 C 14.789062 -49.988281 14.6875 -49.253906 14.53125 -48.515625 C 14.53125 -48.203125 14.660156 -48.019531 14.921875 -47.96875 C 15.179688 -47.914062 15.425781 -47.890625 15.65625 -47.890625 C 15.894531 -47.890625 16.015625 -47.757812 16.015625 -47.5 C 16.015625 -46.820312 15.726562 -45.972656 15.15625 -44.953125 C 14.582031 -43.929688 14.296875 -42.921875 14.296875 -41.921875 C 14.296875 -41.660156 14.375 -41.410156 14.53125 -41.171875 C 14.6875 -40.941406 14.765625 -40.695312 14.765625 -40.4375 C 14.765625 -40.226562 14.6875 -40.003906 14.53125 -39.765625 C 14.375 -39.535156 14.296875 -39.285156 14.296875 -39.015625 C 14.296875 -38.859375 14.320312 -38.703125 14.375 -38.546875 C 14.425781 -38.390625 14.453125 -38.257812 14.453125 -38.15625 C 14.453125 -37.789062 14.253906 -37.382812 13.859375 -36.9375 C 13.460938 -36.5 13.265625 -36.015625 13.265625 -35.484375 C 13.265625 -35.171875 13.328125 -34.859375 13.453125 -34.546875 C 13.585938 -34.234375 13.65625 -33.945312 13.65625 -33.6875 C 13.65625 -33.476562 13.585938 -33.265625 13.453125 -33.046875 C 13.328125 -32.835938 13.265625 -32.601562 13.265625 -32.34375 C 13.265625 -32.238281 13.289062 -32.109375 13.34375 -31.953125 C 13.394531 -31.796875 13.421875 -31.664062 13.421875 -31.5625 C 13.421875 -31.039062 13.265625 -30.632812 12.953125 -30.34375 C 12.640625 -30.0625 12.3125 -29.773438 11.96875 -29.484375 C 11.632812 -29.191406 11.46875 -28.757812 11.46875 -28.1875 C 11.46875 -27.820312 11.570312 -27.640625 11.78125 -27.640625 C 12.144531 -27.640625 12.351562 -27.78125 12.40625 -28.0625 C 12.457031 -28.351562 12.664062 -28.5 13.03125 -28.5 C 13.238281 -28.5 13.421875 -28.457031 13.578125 -28.375 C 13.734375 -28.300781 13.914062 -28.265625 14.125 -28.265625 C 15.488281 -28.367188 16.601562 -28.679688 17.46875 -29.203125 C 18.332031 -29.734375 19.234375 -30.101562 20.171875 -30.3125 C 21.015625 -30.519531 21.972656 -30.738281 23.046875 -30.96875 C 24.117188 -31.207031 24.992188 -31.5625 25.671875 -32.03125 C 26.566406 -32.601562 27.25 -32.929688 27.71875 -33.015625 C 28.1875 -33.097656 28.507812 -33.175781 28.6875 -33.25 C 28.875 -33.332031 28.96875 -33.6875 28.96875 -34.3125 C 28.96875 -34.519531 28.953125 -34.765625 28.921875 -35.046875 C 28.898438 -35.335938 28.890625 -35.585938 28.890625 -35.796875 C 28.890625 -36.796875 29.097656 -37.789062 29.515625 -38.78125 C 29.941406 -39.78125 30.15625 -40.851562 30.15625 -42 C 30.257812 -43.050781 30.53125 -44.320312 30.96875 -45.8125 C 31.414062 -47.300781 31.847656 -48.789062 32.265625 -50.28125 C 32.679688 -51.78125 32.890625 -53.023438 32.890625 -54.015625 C 32.890625 -55.378906 33.453125 -56.226562 34.578125 -56.5625 C 35.710938 -56.90625 36.878906 -57.078125 38.078125 -57.078125 C 39.648438 -57.078125 40.773438 -56.851562 41.453125 -56.40625 C 42.140625 -55.96875 42.484375 -54.960938 42.484375 -53.390625 C 42.484375 -52.867188 42.257812 -51.875 41.8125 -50.40625 C 41.363281 -48.9375 40.957031 -46.894531 40.59375 -44.28125 C 40.488281 -43.863281 40.210938 -43.664062 39.765625 -43.6875 C 39.316406 -43.71875 39.09375 -43.578125 39.09375 -43.265625 C 39.09375 -43.109375 39.132812 -42.921875 39.21875 -42.703125 C 39.300781 -42.492188 39.34375 -42.335938 39.34375 -42.234375 C 39.34375 -42.128906 39.328125 -42.035156 39.296875 -41.953125 C 39.265625 -41.878906 39.25 -41.789062 39.25 -41.6875 C 39.25 -41.425781 39.328125 -41.191406 39.484375 -40.984375 C 39.648438 -40.773438 39.785156 -40.539062 39.890625 -40.28125 Z M 34 -35.5625 C 34 -35.5625 34 -35.519531 34 -35.4375 C 34 -35.363281 34 -35.328125 34 -35.328125 L 34.078125 -35.484375 C 34.023438 -35.484375 34 -35.484375 34 -35.484375 C 34 -35.484375 33.972656 -35.484375 33.921875 -35.484375 C 33.921875 -35.484375 33.929688 -35.484375 33.953125 -35.484375 C 33.984375 -35.484375 34 -35.507812 34 -35.5625 Z M 32.1875 -16.5625 C 32.132812 -16.40625 32.082031 -16.222656 32.03125 -16.015625 C 31.976562 -15.804688 31.953125 -15.597656 31.953125 -15.390625 C 31.953125 -15.128906 32.054688 -15 32.265625 -15 C 32.578125 -15.15625 32.734375 -15.335938 32.734375 -15.546875 C 32.734375 -15.753906 32.65625 -15.921875 32.5 -16.046875 C 32.34375 -16.179688 32.210938 -16.351562 32.109375 -16.5625 C 32.160156 -16.664062 32.210938 -16.796875 32.265625 -16.953125 C 32.316406 -17.109375 32.34375 -17.242188 32.34375 -17.359375 C 32.34375 -17.460938 32.238281 -17.617188 32.03125 -17.828125 C 31.925781 -17.828125 31.832031 -17.75 31.75 -17.59375 C 31.675781 -17.4375 31.640625 -17.328125 31.640625 -17.265625 C 31.742188 -17.160156 31.847656 -17.039062 31.953125 -16.90625 C 32.054688 -16.78125 32.132812 -16.664062 32.1875 -16.5625 Z M 10.046875 -27.09375 C 10.304688 -27.09375 10.460938 -27.300781 10.515625 -27.71875 C 10.566406 -28.132812 10.59375 -28.445312 10.59375 -28.65625 C 10.59375 -28.914062 10.566406 -29.242188 10.515625 -29.640625 C 10.460938 -30.035156 10.28125 -30.234375 9.96875 -30.234375 C 9.289062 -30.023438 8.953125 -29.679688 8.953125 -29.203125 C 8.953125 -28.835938 9.066406 -28.445312 9.296875 -28.03125 C 9.535156 -27.613281 9.8125 -27.273438 10.125 -27.015625 C 10.070312 -26.960938 10.019531 -26.921875 9.96875 -26.890625 C 9.914062 -26.867188 9.863281 -26.800781 9.8125 -26.6875 C 9.863281 -26.6875 9.898438 -26.671875 9.921875 -26.640625 C 9.953125 -26.617188 9.992188 -26.609375 10.046875 -26.609375 C 10.097656 -26.660156 10.125 -26.742188 10.125 -26.859375 C 10.125 -26.960938 10.097656 -27.039062 10.046875 -27.09375 Z M 7.0625 -6.515625 C 7.0625 -6.773438 7.164062 -7.101562 7.375 -7.5 C 7.582031 -7.894531 7.6875 -8.273438 7.6875 -8.640625 C 7.6875 -9.109375 7.539062 -9.5625 7.25 -10 C 6.96875 -10.445312 6.828125 -10.859375 6.828125 -11.234375 C 6.828125 -11.335938 6.851562 -11.441406 6.90625 -11.546875 C 6.957031 -11.648438 6.984375 -11.753906 6.984375 -11.859375 C 6.984375 -12.015625 6.90625 -12.09375 6.75 -12.09375 C 6.4375 -11.882812 6.238281 -11.582031 6.15625 -11.1875 C 6.082031 -10.789062 6.046875 -10.382812 6.046875 -9.96875 C 6.046875 -9.289062 6.082031 -8.675781 6.15625 -8.125 C 6.238281 -7.570312 6.566406 -7.007812 7.140625 -6.4375 C 7.140625 -6.4375 7.125 -6.4375 7.09375 -6.4375 C 7.070312 -6.4375 7.0625 -6.460938 7.0625 -6.515625 Z M 31.953125 -8.5625 C 31.898438 -8.976562 31.859375 -9.34375 31.828125 -9.65625 C 31.804688 -9.96875 31.664062 -10.125 31.40625 -10.125 C 31.09375 -10.125 30.859375 -9.890625 30.703125 -9.421875 C 30.546875 -8.953125 30.46875 -8.585938 30.46875 -8.328125 C 30.46875 -8.066406 30.503906 -7.789062 30.578125 -7.5 C 30.660156 -7.207031 30.882812 -7.0625 31.25 -7.0625 C 31.5625 -7.21875 31.742188 -7.46875 31.796875 -7.8125 C 31.847656 -8.15625 31.898438 -8.40625 31.953125 -8.5625 Z M 7.453125 -4.3125 C 6.929688 -4.15625 6.671875 -3.972656 6.671875 -3.765625 C 6.671875 -3.503906 6.734375 -3.097656 6.859375 -2.546875 C 6.992188 -2.003906 7.148438 -1.507812 7.328125 -1.0625 C 7.515625 -0.613281 7.632812 -0.363281 7.6875 -0.3125 C 7.6875 -0.519531 7.710938 -0.738281 7.765625 -0.96875 C 7.816406 -1.207031 7.84375 -1.4375 7.84375 -1.65625 C 7.84375 -2.488281 7.710938 -3.375 7.453125 -4.3125 Z M 7.140625 -20.171875 C 7.085938 -20.390625 7.046875 -20.628906 7.015625 -20.890625 C 6.992188 -21.148438 6.828125 -21.359375 6.515625 -21.515625 C 6.460938 -21.515625 6.410156 -21.488281 6.359375 -21.4375 C 6.304688 -21.382812 6.28125 -21.359375 6.28125 -21.359375 C 6.28125 -21.253906 6.289062 -20.960938 6.3125 -20.484375 C 6.34375 -20.015625 6.488281 -19.78125 6.75 -19.78125 C 6.800781 -19.832031 6.863281 -19.894531 6.9375 -19.96875 C 7.019531 -20.050781 7.085938 -20.117188 7.140625 -20.171875 Z M 29.515625 -6.28125 C 28.890625 -6.28125 28.578125 -6.019531 28.578125 -5.5 C 28.578125 -5.394531 28.640625 -5.222656 28.765625 -4.984375 C 28.898438 -4.742188 29.070312 -4.625 29.28125 -4.625 C 29.488281 -4.625 29.601562 -4.753906 29.625 -5.015625 C 29.65625 -5.285156 29.671875 -5.550781 29.671875 -5.8125 C 29.671875 -6.125 29.617188 -6.28125 29.515625 -6.28125 Z M 11.703125 -34.3125 C 11.648438 -34.101562 11.609375 -33.921875 11.578125 -33.765625 C 11.554688 -33.609375 11.546875 -33.476562 11.546875 -33.375 C 11.546875 -33.101562 11.597656 -32.863281 11.703125 -32.65625 C 11.804688 -32.976562 11.859375 -33.21875 11.859375 -33.375 C 11.859375 -33.53125 11.84375 -33.6875 11.8125 -33.84375 C 11.789062 -34 11.753906 -34.15625 11.703125 -34.3125 Z M 12.015625 -40.515625 C 12.378906 -40.617188 12.5625 -40.828125 12.5625 -41.140625 C 12.5625 -41.242188 12.535156 -41.359375 12.484375 -41.484375 C 12.429688 -41.617188 12.328125 -41.6875 12.171875 -41.6875 C 12.171875 -41.6875 12.066406 -41.609375 11.859375 -41.453125 C 11.648438 -41.296875 11.546875 -41.113281 11.546875 -40.90625 C 11.546875 -40.644531 11.703125 -40.515625 12.015625 -40.515625 Z M 28.34375 -17.828125 C 28.34375 -17.929688 28.289062 -18.085938 28.1875 -18.296875 C 27.976562 -18.085938 27.875 -17.957031 27.875 -17.90625 C 27.875 -17.851562 27.898438 -17.785156 27.953125 -17.703125 C 28.003906 -17.628906 28.03125 -17.539062 28.03125 -17.4375 C 28.238281 -17.644531 28.34375 -17.773438 28.34375 -17.828125 Z M 32.421875 -21.828125 C 32.421875 -21.984375 32.34375 -22.0625 32.1875 -22.0625 C 31.875 -22.0625 31.71875 -21.90625 31.71875 -21.59375 C 31.71875 -21.382812 31.820312 -21.28125 32.03125 -21.28125 C 32.1875 -21.28125 32.316406 -21.460938 32.421875 -21.828125 Z M 32.1875 -18.921875 C 32.1875 -18.972656 32.195312 -19.007812 32.21875 -19.03125 C 32.25 -19.0625 32.265625 -19.078125 32.265625 -19.078125 C 32.210938 -19.128906 32.171875 -19.15625 32.140625 -19.15625 C 32.117188 -19.15625 32.109375 -19.15625 32.109375 -19.15625 C 32.054688 -19.15625 32.003906 -19.128906 31.953125 -19.078125 C 31.898438 -19.023438 31.875 -19 31.875 -19 C 31.875 -19 31.882812 -18.972656 31.90625 -18.921875 C 31.9375 -18.867188 31.953125 -18.84375 31.953125 -18.84375 C 32.003906 -18.84375 32.039062 -18.851562 32.0625 -18.875 C 32.09375 -18.90625 32.132812 -18.921875 32.1875 -18.921875 Z M 37.765625 -38.46875 C 37.765625 -38.675781 37.6875 -38.78125 37.53125 -38.78125 C 37.53125 -38.726562 37.515625 -38.675781 37.484375 -38.625 C 37.460938 -38.570312 37.453125 -38.492188 37.453125 -38.390625 C 37.453125 -38.390625 37.460938 -38.375 37.484375 -38.34375 C 37.515625 -38.320312 37.554688 -38.3125 37.609375 -38.3125 C 37.609375 -38.3125 37.660156 -38.363281 37.765625 -38.46875 Z M 11.703125 -36.75 C 11.703125 -36.851562 11.675781 -36.929688 11.625 -36.984375 C 11.625 -36.929688 11.609375 -36.890625 11.578125 -36.859375 C 11.554688 -36.835938 11.546875 -36.800781 11.546875 -36.75 C 11.546875 -36.695312 11.554688 -36.65625 11.578125 -36.625 C 11.609375 -36.601562 11.625 -36.566406 11.625 -36.515625 C 11.675781 -36.566406 11.703125 -36.644531 11.703125 -36.75 Z M 10.4375 -34.46875 C 10.488281 -34.570312 10.539062 -34.660156 10.59375 -34.734375 C 10.644531 -34.816406 10.671875 -34.882812 10.671875 -34.9375 C 10.671875 -35.039062 10.644531 -35.128906 10.59375 -35.203125 C 10.539062 -35.285156 10.488281 -35.351562 10.4375 -35.40625 C 10.382812 -35.351562 10.332031 -35.285156 10.28125 -35.203125 C 10.226562 -35.128906 10.203125 -35.039062 10.203125 -34.9375 C 10.203125 -34.882812 10.226562 -34.816406 10.28125 -34.734375 C 10.332031 -34.660156 10.382812 -34.570312 10.4375 -34.46875 Z M 8.640625 -1.328125 C 8.585938 -1.273438 8.5625 -1.195312 8.5625 -1.09375 C 8.5625 -1.09375 8.570312 -1.09375 8.59375 -1.09375 C 8.625 -1.09375 8.664062 -1.066406 8.71875 -1.015625 C 8.71875 -1.066406 8.726562 -1.101562 8.75 -1.125 C 8.78125 -1.15625 8.796875 -1.195312 8.796875 -1.25 C 8.796875 -1.25 8.769531 -1.257812 8.71875 -1.28125 C 8.664062 -1.3125 8.640625 -1.328125 8.640625 -1.328125 Z M 31.71875 -12.484375 C 31.613281 -12.273438 31.5625 -12.117188 31.5625 -12.015625 C 31.5625 -11.910156 31.613281 -11.859375 31.71875 -11.859375 C 31.820312 -11.859375 31.875 -11.910156 31.875 -12.015625 C 31.875 -12.117188 31.820312 -12.273438 31.71875 -12.484375 Z M 9.03125 -15.78125 C 9.03125 -15.9375 9.015625 -16.078125 8.984375 -16.203125 C 8.960938 -16.335938 8.953125 -16.457031 8.953125 -16.5625 C 8.953125 -16.664062 9.03125 -16.726562 9.1875 -16.75 C 9.34375 -16.78125 9.445312 -16.796875 9.5 -16.796875 C 9.550781 -16.796875 9.585938 -16.78125 9.609375 -16.75 C 9.640625 -16.726562 9.65625 -16.71875 9.65625 -16.71875 C 9.601562 -16.40625 9.550781 -16.207031 9.5 -16.125 C 9.445312 -16.050781 9.289062 -15.9375 9.03125 -15.78125 Z M 39.96875 -40.203125 C 39.8125 -40.460938 39.734375 -40.695312 39.734375 -40.90625 C 39.734375 -41.0625 39.785156 -41.253906 39.890625 -41.484375 C 39.992188 -41.722656 40.148438 -41.84375 40.359375 -41.84375 C 40.460938 -41.84375 40.515625 -41.789062 40.515625 -41.6875 C 40.515625 -41.53125 40.4375 -41.304688 40.28125 -41.015625 C 40.125 -40.734375 39.992188 -40.488281 39.890625 -40.28125 C 39.890625 -40.28125 39.898438 -40.265625 39.921875 -40.234375 C 39.953125 -40.210938 39.96875 -40.203125 39.96875 -40.203125 Z M 9.421875 -8.953125 C 9.316406 -8.742188 9.238281 -8.640625 9.1875 -8.640625 C 9.03125 -8.640625 8.953125 -8.742188 8.953125 -8.953125 C 9.003906 -9.054688 9.039062 -9.144531 9.0625 -9.21875 C 9.09375 -9.300781 9.132812 -9.367188 9.1875 -9.421875 C 9.34375 -9.265625 9.421875 -9.109375 9.421875 -8.953125 Z M 6.984375 -8.796875 C 6.984375 -8.742188 6.96875 -8.71875 6.9375 -8.71875 C 6.914062 -8.71875 6.90625 -8.691406 6.90625 -8.640625 C 6.851562 -8.691406 6.8125 -8.726562 6.78125 -8.75 C 6.757812 -8.78125 6.75 -8.796875 6.75 -8.796875 C 6.75 -8.847656 6.800781 -8.925781 6.90625 -9.03125 C 6.90625 -8.976562 6.914062 -8.9375 6.9375 -8.90625 C 6.96875 -8.882812 6.984375 -8.847656 6.984375 -8.796875 Z M 6.984375 -8.796875 "/></g></g></g><g fill="#0ea5e9" fill-opacity="1"><g transform="translate(206.03161, 87.097694)"><g><path d="M 6.90625 -20.8125 C 7.0625 -22.476562 7.148438 -23.804688 7.171875 -24.796875 C 7.203125 -25.796875 7.585938 -26.847656 8.328125 -27.953125 C 8.640625 -28.367188 8.875 -29.035156 9.03125 -29.953125 C 9.1875 -30.867188 9.378906 -31.863281 9.609375 -32.9375 C 9.847656 -34.007812 10.175781 -34.9375 10.59375 -35.71875 C 10.75 -36.144531 10.929688 -36.539062 11.140625 -36.90625 C 11.359375 -37.269531 11.492188 -37.6875 11.546875 -38.15625 C 11.597656 -38.625 11.789062 -39.015625 12.125 -39.328125 C 12.46875 -39.648438 12.664062 -40.046875 12.71875 -40.515625 C 12.769531 -40.929688 12.820312 -41.414062 12.875 -41.96875 C 12.925781 -42.519531 13.054688 -42.976562 13.265625 -43.34375 C 14.003906 -44.488281 14.660156 -45.875 15.234375 -47.5 C 15.804688 -49.125 16.421875 -50.71875 17.078125 -52.28125 C 17.734375 -53.851562 18.519531 -55.160156 19.4375 -56.203125 C 20.351562 -57.253906 21.515625 -57.78125 22.921875 -57.78125 C 23.128906 -57.78125 23.351562 -57.78125 23.59375 -57.78125 C 23.832031 -57.78125 24.054688 -57.78125 24.265625 -57.78125 C 25.359375 -57.78125 26.21875 -57.375 26.84375 -56.5625 C 27.476562 -55.757812 27.953125 -54.738281 28.265625 -53.5 C 28.578125 -52.269531 28.769531 -51.015625 28.84375 -49.734375 C 28.925781 -48.453125 28.96875 -47.34375 28.96875 -46.40625 C 28.96875 -45.71875 28.96875 -45.21875 28.96875 -44.90625 C 28.96875 -44.59375 28.914062 -44.253906 28.8125 -43.890625 C 29.382812 -43.003906 29.722656 -41.800781 29.828125 -40.28125 C 29.941406 -38.757812 30.050781 -37.398438 30.15625 -36.203125 C 30.3125 -35.359375 30.492188 -34.554688 30.703125 -33.796875 C 30.910156 -33.035156 31.015625 -32.210938 31.015625 -31.328125 C 31.015625 -30.910156 31 -30.488281 30.96875 -30.0625 C 30.945312 -29.644531 30.9375 -29.226562 30.9375 -28.8125 C 30.9375 -27.289062 31.179688 -25.875 31.671875 -24.5625 C 32.171875 -23.257812 32.921875 -21.847656 33.921875 -20.328125 C 33.765625 -19.910156 33.609375 -19.492188 33.453125 -19.078125 C 33.296875 -18.660156 33.132812 -18.242188 32.96875 -17.828125 C 33.1875 -17.035156 33.382812 -16.085938 33.5625 -14.984375 C 33.75 -13.890625 33.945312 -12.882812 34.15625 -11.96875 C 34.363281 -11.050781 34.570312 -10.4375 34.78125 -10.125 C 35.039062 -9.8125 35.25 -9.222656 35.40625 -8.359375 C 35.5625 -7.492188 35.703125 -6.578125 35.828125 -5.609375 C 35.960938 -4.640625 36.164062 -3.789062 36.4375 -3.0625 C 36.695312 -2.28125 36.863281 -1.484375 36.9375 -0.671875 C 37.019531 0.140625 37.0625 0.992188 37.0625 1.890625 C 36.851562 2.046875 36.640625 2.1875 36.421875 2.3125 C 36.210938 2.445312 36.003906 2.566406 35.796875 2.671875 C 35.273438 3.085938 34.644531 3.660156 33.90625 4.390625 C 33.175781 5.128906 32.523438 5.5 31.953125 5.5 C 31.585938 5.5 31.300781 5.300781 31.09375 4.90625 C 30.882812 4.507812 30.648438 4.234375 30.390625 4.078125 C 29.390625 3.503906 28.734375 2.757812 28.421875 1.84375 C 28.109375 0.925781 27.875 0 27.71875 -0.9375 C 27.5625 -1.78125 27.335938 -2.578125 27.046875 -3.328125 C 26.753906 -4.085938 26.609375 -4.96875 26.609375 -5.96875 C 26.609375 -6.125 26.617188 -6.28125 26.640625 -6.4375 C 26.671875 -6.59375 26.6875 -6.75 26.6875 -6.90625 C 26.6875 -7.320312 26.632812 -8.101562 26.53125 -9.25 C 26.425781 -10.40625 26.253906 -11.625 26.015625 -12.90625 C 25.785156 -14.195312 25.472656 -15.3125 25.078125 -16.25 C 24.691406 -17.195312 24.238281 -17.671875 23.71875 -17.671875 C 23.289062 -17.671875 22.722656 -17.550781 22.015625 -17.3125 C 21.316406 -17.070312 20.675781 -16.875 20.09375 -16.71875 C 19.726562 -16.300781 19.257812 -16.09375 18.6875 -16.09375 C 18.113281 -16.09375 17.613281 -15.9375 17.1875 -15.625 C 16.976562 -15.46875 16.769531 -15.390625 16.5625 -15.390625 C 16.40625 -15.390625 16.257812 -15.398438 16.125 -15.421875 C 16 -15.453125 15.859375 -15.492188 15.703125 -15.546875 C 15.492188 -15.546875 15.019531 -15.335938 14.28125 -14.921875 C 13.550781 -14.503906 12.796875 -14.296875 12.015625 -14.296875 C 11.273438 -14.296875 10.628906 -13.769531 10.078125 -12.71875 C 9.535156 -11.675781 9.066406 -10.421875 8.671875 -8.953125 C 8.285156 -7.484375 7.921875 -6.082031 7.578125 -4.75 C 7.234375 -3.414062 6.90625 -2.460938 6.59375 -1.890625 C 6.488281 -1.617188 6.238281 -1.023438 5.84375 -0.109375 C 5.457031 0.796875 4.945312 1.664062 4.3125 2.5 C 3.6875 3.34375 2.957031 3.765625 2.125 3.765625 C 1.644531 3.765625 1.171875 3.566406 0.703125 3.171875 C 0.234375 2.785156 0 2.382812 0 1.96875 C 0 1.8125 0.0234375 1.675781 0.078125 1.5625 C 0.492188 0.519531 0.925781 -0.640625 1.375 -1.921875 C 1.820312 -3.203125 2.148438 -4.472656 2.359375 -5.734375 C 2.566406 -6.722656 2.863281 -7.875 3.25 -9.1875 C 3.644531 -10.5 4.023438 -11.832031 4.390625 -13.1875 C 4.765625 -14.550781 4.953125 -15.78125 4.953125 -16.875 C 4.953125 -17.40625 4.832031 -17.929688 4.59375 -18.453125 C 4.351562 -18.972656 4.234375 -19.492188 4.234375 -20.015625 C 4.234375 -20.492188 4.445312 -20.734375 4.875 -20.734375 C 5.082031 -20.734375 5.273438 -20.71875 5.453125 -20.6875 C 5.640625 -20.664062 5.835938 -20.65625 6.046875 -20.65625 C 6.203125 -20.65625 6.488281 -20.707031 6.90625 -20.8125 Z M 16.09375 -34 C 16.09375 -33.632812 16.09375 -33.28125 16.09375 -32.9375 C 16.09375 -32.59375 16.039062 -32.265625 15.9375 -31.953125 C 15.882812 -31.585938 15.632812 -30.972656 15.1875 -30.109375 C 14.75 -29.242188 14.304688 -28.257812 13.859375 -27.15625 C 13.410156 -26.0625 13.1875 -24.914062 13.1875 -23.71875 C 13.1875 -23.34375 13.210938 -22.929688 13.265625 -22.484375 C 13.316406 -22.046875 13.523438 -21.828125 13.890625 -21.828125 C 15.253906 -21.828125 16.679688 -21.984375 18.171875 -22.296875 C 19.660156 -22.609375 21.085938 -22.867188 22.453125 -23.078125 C 23.023438 -23.335938 23.363281 -23.664062 23.46875 -24.0625 C 23.582031 -24.457031 23.640625 -24.890625 23.640625 -25.359375 C 23.640625 -27.296875 23.363281 -29.503906 22.8125 -31.984375 C 22.257812 -34.472656 21.984375 -36.84375 21.984375 -39.09375 C 21.984375 -39.3125 22.007812 -39.5 22.0625 -39.65625 C 22.0625 -39.65625 22.0625 -39.640625 22.0625 -39.609375 C 22.0625 -39.585938 22.0625 -39.578125 22.0625 -39.578125 C 22.0625 -39.578125 21.984375 -39.898438 21.828125 -40.546875 C 21.671875 -41.203125 21.488281 -41.867188 21.28125 -42.546875 C 21.070312 -43.234375 20.890625 -43.578125 20.734375 -43.578125 C 20.628906 -43.578125 20.363281 -43.179688 19.9375 -42.390625 C 19.519531 -41.609375 19.140625 -40.769531 18.796875 -39.875 C 18.460938 -38.988281 18.296875 -38.335938 18.296875 -37.921875 C 18.296875 -36.242188 17.5625 -34.9375 16.09375 -34 Z M 16.09375 -34 "/></g></g></g></g></g></svg>